<?xml version="1.0" encoding="utf-8"?>
<!-- Generator: Adobe Illustrator 17.1.0, SVG Export Plug-In . SVG Version: 6.00 Build 0)  -->
<!DOCTYPE svg PUBLIC "-//W3C//DTD SVG 1.1//EN" "http://www.w3.org/Graphics/SVG/1.1/DTD/svg11.dtd">
<svg version="1.1" id="Layer_1" xmlns="http://www.w3.org/2000/svg" xmlns:xlink="http://www.w3.org/1999/xlink" x="0px" y="0px"
	 viewBox="0 0 26 26" enable-background="new 0 0 26 26" xml:space="preserve">
<g>
	<path fill="#010101" d="M22.3,3.9C19.9,1.4,16.7,0,13.2,0h0h0H13C5.9,0,0.1,5.7,0,12.8C-0.1,20,5.6,25.9,12.8,26H13
		c7.1,0,12.9-5.8,13-12.8C26.1,9.7,24.7,6.4,22.3,3.9z M13,24.5h-0.2C6.5,24.4,1.4,19.2,1.5,12.8C1.6,6.6,6.7,1.5,13,1.5h0.2
		c3.1,0,5.9,1.3,8.1,3.5c2.1,2.2,3.3,5.1,3.2,8.2C24.4,19.4,19.2,24.5,13,24.5z"/>
	<path fill="#010101" d="M21.2,15.3c-0.5-0.3-1-0.3-1.8-0.2c-0.2,0-0.4,0.3-0.4,0.6c0.1,0.2,0.3,0.3,0.4,0.4c0.1,0,0.1,0,0.2,0
		c-0.2,1.1-0.7,2-1.6,2.7c-1.9,1.6-4.2,2.1-6.9,1.6c-2.5-0.5-4-1.8-4.7-3.7c-0.1-0.2-0.1-0.4-0.2-0.7c0,0,0,0,0,0
		c0.3,0,0.5-0.2,0.5-0.4c0-0.1,0-0.3,0-0.4C6.8,15.1,6.7,15,6.5,15c-0.7-0.2-1.3-0.1-1.9,0.2c-0.2,0.1-0.3,0.2-0.3,0.3
		c0,0.1,0,0.2,0.1,0.3c0.2,0.2,0.4,0.3,0.7,0.2c0.4,2.9,3.3,5.2,7,5.5c0.3,0,0.6,0,0.9,0c1.7,0,3.3-0.4,4.7-1.2
		c1.7-1,2.8-2.4,3.1-4.2c0.1,0,0.1,0,0.2,0c0.2,0,0.3-0.1,0.5-0.2c0.1-0.1,0.1-0.3,0.1-0.4C21.5,15.5,21.3,15.4,21.2,15.3z"/>
	<path fill="#010101" d="M22.1,6.6c0-0.2-0.1-0.2-0.1-0.2c-0.4-0.1-2.5-0.3-2.5-0.3c-1.9-0.2-3.8,0.2-3.8,0.2
		c-1.2,0.2-2.3,0.3-2.3,0.3s-0.3,0-0.8,0c0,0-1.1-0.1-2.3-0.3c0,0-1.9-0.4-3.8-0.2c0,0-2.2,0.2-2.5,0.3c0,0-0.1,0-0.1,0.2l0,0.9
		c0,0,0,0.1,0,0.1l0.1,0.1c0,0,0.1,0.2,0.2,0.6c0,0,0.3,2.6,0.6,3.1c0,0,0.3,0.8,1.4,1.2c0.8,0.3,2.6,0.5,3.9-0.1
		c0,0,0.4-0.2,0.7-0.6c0.5-0.5,1.2-1.4,1.5-2.9c0,0,0.1-0.6,0.5-0.7c0.2,0,0.1,0,0.1,0c0.4,0,0.5,0.7,0.5,0.7c0.3,1.4,1,2.3,1.5,2.9
		c0.4,0.4,0.7,0.6,0.7,0.6c1.2,0.6,3.1,0.4,3.9,0.1c1.1-0.4,1.4-1.2,1.4-1.2c0.3-0.5,0.6-3.1,0.6-3.1c0.1-0.4,0.2-0.6,0.2-0.6
		L22,7.7c0,0,0.1-0.1,0.1-0.1L22.1,6.6z"/>
</g>
</svg>
