<?xml version="1.0" encoding="utf-8"?>
<!-- Generator: Adobe Illustrator 17.1.0, SVG Export Plug-In . SVG Version: 6.00 Build 0)  -->
<!DOCTYPE svg PUBLIC "-//W3C//DTD SVG 1.1//EN" "http://www.w3.org/Graphics/SVG/1.1/DTD/svg11.dtd">
<svg version="1.1" id="Layer_1" xmlns="http://www.w3.org/2000/svg" xmlns:xlink="http://www.w3.org/1999/xlink" x="0px" y="0px"
	 viewBox="67.5 0 135 162" enable-background="new 67.5 0 135 162" xml:space="preserve">
<g>
	<path fill="none" d="M135,8.1c-16.2,0-30.8,12.4-38.3,30.2h77.2C165.8,20.5,151.2,8.1,135,8.1z"/>
	<path fill="#FFFFFF" d="M182,38.3C173.3,15.7,155.5,0,135,0S96.7,15.7,88,38.3H67.5v107.5c0,7.6,8.6,16.2,16.2,16.2h108
		c7.6,0,10.8-8.6,10.8-16.2V38.3H182z M194.4,145.8c0,4.9-2.2,8.1-2.7,8.1h-108c-3.2,0-8.1-5.4-8.1-8.1V46.4h118.8V145.8z M135,8.1
		c16.2,0,30.8,12.4,38.3,30.2H96.7C104.2,20.5,118.8,8.1,135,8.1z"/>
</g>
</svg>
