<?xml version="1.0" encoding="utf-8"?>
<!-- Generator: Adobe Illustrator 17.1.0, SVG Export Plug-In . SVG Version: 6.00 Build 0)  -->
<!DOCTYPE svg PUBLIC "-//W3C//DTD SVG 1.1//EN" "http://www.w3.org/Graphics/SVG/1.1/DTD/svg11.dtd">
<svg version="1.1" id="Layer_1" xmlns="http://www.w3.org/2000/svg" xmlns:xlink="http://www.w3.org/1999/xlink" x="0px" y="0px"
	 viewBox="0 0 25 30" enable-background="new 0 0 25 30" xml:space="preserve">
<g>
	<path fill="none" d="M12.5,1.5c-3,0-5.7,2.3-7.1,5.6h14.3C18.2,3.8,15.5,1.5,12.5,1.5z"/>
	<path fill="#231F20" d="M21.2,7.1C19.6,2.9,16.3,0,12.5,0S5.4,2.9,3.8,7.1H0V27c0,1.4,1.6,3,3,3h20c1.4,0,2-1.6,2-3V7.1H21.2z
		 M23.5,27c0,0.9-0.4,1.5-0.5,1.5H3c-0.6,0-1.5-1-1.5-1.5V8.6h22V27z M12.5,1.5c3,0,5.7,2.3,7.1,5.6H5.4C6.8,3.8,9.5,1.5,12.5,1.5z"
		/>
</g>
</svg>
