<?xml version="1.0" encoding="utf-8"?>
<!-- Generator: Adobe Illustrator 17.1.0, SVG Export Plug-In . SVG Version: 6.00 Build 0)  -->
<!DOCTYPE svg PUBLIC "-//W3C//DTD SVG 1.1//EN" "http://www.w3.org/Graphics/SVG/1.1/DTD/svg11.dtd">
<svg version="1.1" id="Layer_1" xmlns="http://www.w3.org/2000/svg" xmlns:xlink="http://www.w3.org/1999/xlink" x="0px" y="0px"
	 viewBox="54 3.8 162 154.3" enable-background="new 54 3.8 162 154.3" xml:space="preserve">
<g id="Flat_copy">
	<g>
		<path fill="#999999" d="M154.3,3.8c0,0-35.4,0-47.6,0C85,3.8,64.5,19.1,64.5,38.2c0,19.5,14.8,34.7,37,34.7c1.5,0,3-0.3,4.5-0.5
			c-1.4,2.7-2.5,5.7-2.5,8.9c0,5.4,2.9,9.8,6.6,13.3c-2.8,0-5.5,0-8.4,0c-26.9,0-47.7,17.2-47.7,35c0,17.5,22.7,28.5,49.7,28.5
			c30.7,0,47.7-17.5,47.7-35c0-14-4.2-22.5-17-31.6c-4.4-3.1-12.8-10.6-12.8-15.1c0-5.2,1.5-7.8,9.3-13.9c8-6.3,13.7-13.7,13.7-24
			c0-12.2-5.2-27.1-15.5-27.1h17.4L154.3,3.8z M138.3,120.1c0.4,1.6,0.6,3.3,0.6,5c0,14.2-9.1,25.2-35.3,25.2
			c-18.6,0-32.1-11.8-32.1-26c0-13.9,16.7-25.4,35.3-25.2c4.3,0,8.4,0.7,12.1,1.9C129,108.2,136.3,112.1,138.3,120.1z M108.5,67.3
			c-12.5-0.4-24.4-14-26.5-30.4c-2.2-16.4,6.2-29,18.7-28.6c12.5,0.4,24.4,13.6,26.5,30C129.4,54.7,121,67.7,108.5,67.3z"/>
		<polygon fill="#999999" points="192.9,65.5 192.9,42.4 177.4,42.4 177.4,65.5 154.3,65.5 154.3,80.9 177.4,80.9 177.4,104.1 
			192.9,104.1 192.9,80.9 216,80.9 216,65.5 		"/>
	</g>
</g>
</svg>
