<?xml version="1.0" encoding="utf-8"?>
<!-- Generator: Adobe Illustrator 17.1.0, SVG Export Plug-In . SVG Version: 6.00 Build 0)  -->
<!DOCTYPE svg PUBLIC "-//W3C//DTD SVG 1.1//EN" "http://www.w3.org/Graphics/SVG/1.1/DTD/svg11.dtd">
<svg version="1.1" id="Layer_1" xmlns="http://www.w3.org/2000/svg" xmlns:xlink="http://www.w3.org/1999/xlink" x="0px" y="0px"
	 viewBox="56.8 2.8 156.4 156.4" enable-background="new 56.8 2.8 156.4 156.4" xml:space="preserve">
<path id="Blue_1_" fill="#999999" d="M204.6,159.2c4.8,0,8.6-3.9,8.6-8.6V11.4c0-4.8-3.9-8.6-8.6-8.6H65.4c-4.7,0-8.6,3.9-8.6,8.6
	v139.2c0,4.8,3.9,8.6,8.6,8.6L204.6,159.2L204.6,159.2z"/>
<path id="f" fill="#FFFFFF" d="M166.3,149.5V88.9h20.3l3-23.6h-23.4V50.3c0-6.9,1.9-11.5,11.7-11.5h12.5V17.6
	c-2.2-0.3-9.6-0.9-18.2-0.9c-18,0-30.3,11-30.3,31.2v17.4h-20.4v23.6H142v60.6H166.3L166.3,149.5z"/>
</svg>
