<?xml version="1.0" encoding="utf-8"?>
<!-- Generator: Adobe Illustrator 17.1.0, SVG Export Plug-In . SVG Version: 6.00 Build 0)  -->
<!DOCTYPE svg PUBLIC "-//W3C//DTD SVG 1.1//EN" "http://www.w3.org/Graphics/SVG/1.1/DTD/svg11.dtd">
<svg version="1.1" id="Layer_1" xmlns="http://www.w3.org/2000/svg" xmlns:xlink="http://www.w3.org/1999/xlink" x="0px" y="0px"
	 viewBox="57.4 4.8 162 162" enable-background="new 57.4 4.8 162 162" xml:space="preserve">
<path d="M188,4.8H88.8c-17.3,0-31.4,14-31.4,31.4v33v66.3c0,17.3,14,31.4,31.4,31.4H188c17.3,0,31.4-14,31.4-31.4V69.1v-33
	C219.4,18.8,205.4,4.8,188,4.8z M197.2,23.4h3.6V27v23.8h-27.4V23.4L197.2,23.4z M115.2,69.1c5.2-7.2,13.7-11.8,23.2-11.8
	c9.5,0,18,4.6,23.2,11.8c3.3,4.6,5.6,10.5,5.6,16.7c0,15.7-12.7,28.4-28.4,28.4s-28.4-12.7-28.4-28.4C110,79.6,111.9,74,115.2,69.1z
	 M203.7,135.4c0,8.5-6.9,15.7-15.7,15.7H88.8c-8.5,0-15.7-6.9-15.7-15.7V69.1h24.2c-2,5.2-3.3,10.8-3.3,16.7
	c0,24.5,19.9,44.4,44.4,44.4s44.4-19.9,44.4-44.4c0-5.9-1.3-11.4-3.3-16.7h24.2L203.7,135.4L203.7,135.4z"/>
</svg>
