<?xml version="1.0" encoding="utf-8"?>
<!-- Generator: Adobe Illustrator 22.0.1, SVG Export Plug-In . SVG Version: 6.00 Build 0)  -->
<svg version="1.1" id="Layer_1" xmlns="http://www.w3.org/2000/svg" xmlns:xlink="http://www.w3.org/1999/xlink" x="0px" y="0px"
	 viewBox="0 0 25 25" style="enable-background:new 0 0 25 25;" xml:space="preserve">
<style type="text/css">
	.st0{fill:#999999;}
	.st1{fill-rule:evenodd;clip-rule:evenodd;fill:#999999;}
</style>
<g>
	<g>
		<path class="st0" d="M19.4,9.6c-0.5-0.6-1.3-0.5-2-0.4c0-0.9,1.1-1.3,1.9-1.1c-0.2-0.7-0.9-0.8-1.4-0.7c-0.6,0.1-0.7,0.5-1.1,0.5
			c-0.1,0.2-0.1,0.7-0.1,1c-0.5-0.3-0.6-0.8-1-1.2c-0.4-0.4-2.2-0.7-2.2,0.1c0.5,0.1,0.9,0.6,1.4,0.6c0.4,0.5,1.2,0.5-0.3,0.7
			c-0.8,0.1-2.1,0.5-1.7,1.7c0.6,0,1-0.7,1.4-0.8c0.5-0.1,0.8,0.4,1.3,0.2c-1.2,0.6-2.1,1.6-1.2,3c0.2-0.3,1-1.7,1.4-1.7
			c1.1,0,0.6,1.5,0.5,2c-0.1,1.1-0.1,1.7-0.4,2.7c-0.1,0.3-0.1,0.8-0.2,1.2c-0.2,0.5-0.7,1.2,0.1,1.6c1.3,0.6,1.5-4.6,1.6-5.5
			c0-0.4-0.3-2.1,0.5-2.2c0.9-0.1,0.7,1.3,0.7,1.7c0.4-0.3,1-1.4,0.9-1.9c-0.1-0.4-1.7-0.9-1.6-0.9c0.1-0.7,1.8,0.1,2.3,0.1
			C19.7,10.1,19.6,9.8,19.4,9.6z"/>
	</g>
	<g>
		<path class="st0" d="M22.1,3.8c-0.4-0.7-2.7-2.3-2.9-2.4c-0.7-0.2-3.8,0.3-4.9,0.5c-1,0.1-7.4,1.3-7.9,1.6C6,3.7,6.3,7.8,6.9,12.1
			c0.6,4.5,0.6,5.2,0.7,6.5c0,0.3,0.2,1.2,0.2,1.2s2.1,1.7,3,2.1c0,0.1,4.2-0.1,6-0.3c1.7-0.3,7.9-0.7,7.8-1.4
			c-0.3-1.9-0.5-5.5-1.1-8.9C23.1,9.7,22.4,4.4,22.1,3.8z M14.6,2.4C17.2,2,18.5,2,18.9,2c0.2,0,2.1,1.8,2,2
			c-0.1,0.2-3.5,0.3-4.6,0.5c-2.6,0.4-4.8,1.1-6.8,1.8C9.4,6.1,8.6,5,8.4,4.8c-0.1-0.1-0.6-0.6-1-0.9C8.1,3.8,9.9,3.3,14.6,2.4z
			 M8.6,19.6c-0.2-0.2-0.2-1.3-0.5-3.2c-0.4-3.1-1-8.3-1-8.7S6.8,5.2,7,4.7c0,0,0,0,0,0C7.2,4.8,7.4,5,7.7,5.2
			c1.1,1,1.2,1.5,1.2,1.5c-0.1,0.8,0.8,11.1,1.5,14.4C10,20.9,9,20,8.6,19.6z M23.2,19.8c-2.9,0.6-2.5,0.6-6.3,0.9
			c-1.6,0.1-4.3,0.6-5.4,0.4C10.8,20.3,9.7,7.8,9.9,7.4c0.5-1.1,4.4-1.7,7.5-2.2c1.7-0.3,3.9-0.5,4-0.3c0.3,0.3,0.4,3.3,0.9,6.3
			C22.9,14.3,23.3,19.4,23.2,19.8z"/>
	</g>
	<g>
		<path class="st1" d="M4.3,8.4C3.2,8.2,2.6,8.1,2.2,8C1.5,7.7,0.8,8,0.8,8.6c0.1,0.7,0.6,0.8,1.6,0.8c0.4,0,0.9,0.2,1.5,0.3
			S5,9.9,5,9.3C5,8.6,4.3,8.4,4.3,8.4z"/>
		<path class="st1" d="M4.3,12.5c-0.5,0.1-0.7,0.1-1.4,0.2c-0.3,0-1,0.1-1.4,0.1c-0.7,0.1-1.1,0.4-0.9,1s1,0.5,1.9,0.4
			c0.8-0.2,1.4-0.4,1.8-0.4c0.5-0.1,0.7-0.1,0.6-0.8C4.9,12.5,4.5,12.5,4.3,12.5z"/>
		<path class="st1" d="M5,16.4c-1.1,0.5-1.6,0.7-2.3,0.9c-0.7,0.2-0.9,1-0.5,1.4c0.4,0.5,0.7,0.2,1.5-0.2c0.5-0.2,0.9-0.3,1.4-0.7
			s1.2-0.5,1-1.2C5.9,16.1,5,16.4,5,16.4z"/>
	</g>
</g>
</svg>
