<?xml version="1.0" encoding="utf-8"?>
<!-- Generator: Adobe Illustrator 16.0.0, SVG Export Plug-In . SVG Version: 6.00 Build 0)  -->
<!DOCTYPE svg PUBLIC "-//W3C//DTD SVG 1.1//EN" "http://www.w3.org/Graphics/SVG/1.1/DTD/svg11.dtd">
<svg version="1.1" id="Layer_1" xmlns="http://www.w3.org/2000/svg" xmlns:xlink="http://www.w3.org/1999/xlink" x="0px" y="0px"
	 width="50px" height="50px" viewBox="0 0 50 50" enable-background="new 0 0 50 50" xml:space="preserve">
<path fill="#1F2020" d="M47.995,22.819c-0.234-0.893-2.105-1.98-3.34-2.621c-0.058-0.367,1.979-3.829,1.742-4.272
	c-0.377-0.697-3.008-1.211-4.759-1.881c-0.029-0.062-0.063-0.12-0.093-0.177c0.54-1.453,1.689-3.946,1.14-4.632
	c-0.21-0.262-3.059-0.315-4.903-0.164C37.765,7.762,37.347,5.051,37,4.885c-0.443-0.216-3.245,1.106-4.412,1.683
	c0-0.203-1.296-3.784-2.148-4.11c-0.396-0.152-2.275,1.626-3.326,2.761c-0.839-1.173-2.431-3.383-3.326-3.271
	c-0.641,0.077-1.469,2.509-2.288,3.808c-1.157-0.816-4.329-2.91-4.713-2.688c-0.976,0.571-0.764,2.449-0.736,4.548
	c-0.013,0.006-0.029,0.012-0.042,0.016c-1.353-0.562-5.084-1.031-5.25-0.953c-0.844,0.412,0.276,3.575,0.575,4.936
	c-0.03,0.039-0.063,0.074-0.09,0.114c-1.719,0.013-6.011,0.153-5.895,0.917c0.167,1.103,1.481,4.39,2.164,4.6
	c-0.018,0.038-0.034,0.073-0.051,0.112c-1.324,0.66-4.569,1.555-5,1.974c-0.396,0.386,2.413,3.515,3.35,4.438
	c-0.02,0.121-3.878,2.538-3.972,3.614c-0.082-0.03,2.135,2.402,3.647,3.277c-0.854,1.088-2.601,3.395-2.36,3.868
	c0.436,0.892,4.688,1.657,5.021,1.803c-0.617,1.098-2.042,3.631-1.331,4.317c0.204,0.195,3.478-0.266,4.449-0.408
	c0.006,0.004,0.015,0.01,0.022,0.017c-0.214,0.677,0.355,3.074,0.549,4.268c0.402,2.516,3.195-0.432,4.703-1.267
	c0.134,1.575,1.298,4.183,1.616,4.486c0.627,0.173,3.801-2.193,4.504-3.265h0.003c0.644,1.003,2.202,3.247,3,3.592
	c0.979,0.419,3.168-2.829,3.58-3.86c1.046,0.927,2.767,2.085,4.114,1.912c0.797-0.1,0.994-2.292,1.749-4.668
	c0.057-0.038,0.108-0.074,0.168-0.11c0.757,0.768,4.431,1.33,4.914,1.139c0.758-0.308-0.361-4.291-0.53-4.893
	c0.002-0.003,0.006-0.008,0.01-0.013c1.052,0.255,4.862-0.626,5.14-1.242c0.286-0.637-1.463-3.377-2.226-4.63
	c0.009-0.015,0.013-0.027,0.021-0.039c1.289-0.591,4.269-1.5,4.363-2.163c0.058-0.417-1.532-2.185-2.564-3.586
	C45.435,25.209,48.151,23.381,47.995,22.819 M25.013,39.68c-1.471,0-2.664-1.195-2.664-2.661c0-1.47,1.193-2.668,2.664-2.668
	c1.465,0,2.665,1.198,2.665,2.668C27.678,38.484,26.478,39.68,25.013,39.68 M31.937,22.495c-0.568,0.905-1.296,1.78-2.164,2.603
	c-0.651,0.653-1.184,1.172-1.58,1.55c-0.296,0.274-0.52,0.554-0.648,0.794c-0.12,0.23-0.208,0.548-0.255,0.918
	c-0.035,0.311-0.068,0.713-0.086,1.2c-0.054,1.176-1,2.062-2.198,2.062c-0.59,0-1.141-0.238-1.55-0.665
	c-0.407-0.42-0.625-0.997-0.601-1.582c0.023-0.588,0.082-1.123,0.171-1.585c0.152-0.772,0.399-1.48,0.738-2.109
	c0.337-0.622,0.785-1.223,1.337-1.788c0.495-0.502,1.096-1.079,1.779-1.7c0.5-0.461,0.923-0.992,1.255-1.565
	c0.283-0.495,0.43-1.06,0.43-1.675c0-0.463-0.085-0.886-0.259-1.263c-0.175-0.382-0.411-0.707-0.703-0.969
	c-0.307-0.275-0.672-0.495-1.086-0.655c-1.025-0.388-2.262-0.283-3.11,0.101c-0.489,0.22-0.892,0.523-1.198,0.898
	c-0.325,0.4-0.575,0.879-0.741,1.434c-0.115,0.366-0.186,0.758-0.22,1.171c-0.085,1.087-1.026,1.94-2.141,1.94
	c-0.604,0-1.188-0.258-1.595-0.71c-0.413-0.461-0.613-1.072-0.549-1.678c0.08-0.786,0.24-1.533,0.48-2.221
	c0.372-1.08,0.937-2.016,1.679-2.781c0.734-0.761,1.633-1.357,2.67-1.778c1.836-0.743,4.348-0.855,6.36-0.164
	c0.91,0.311,1.73,0.775,2.432,1.377c0.71,0.61,1.28,1.362,1.688,2.23h0.004c0.408,0.875,0.619,1.876,0.619,2.974
	C32.894,20.262,32.571,21.487,31.937,22.495"/>
</svg>
