<?xml version="1.0" encoding="utf-8"?>
<!-- Generator: Adobe Illustrator 16.0.0, SVG Export Plug-In . SVG Version: 6.00 Build 0)  -->
<!DOCTYPE svg PUBLIC "-//W3C//DTD SVG 1.1//EN" "http://www.w3.org/Graphics/SVG/1.1/DTD/svg11.dtd">
<svg version="1.1" id="Layer_1" xmlns="http://www.w3.org/2000/svg" xmlns:xlink="http://www.w3.org/1999/xlink" x="0px" y="0px"
	 width="22.749px" height="42.668px" viewBox="0 0 22.749 42.668" enable-background="new 0 0 22.749 42.668" xml:space="preserve">
<path fill="#010101" d="M2.397,22.316c2.806,6.633,11.166,20.352,11.166,20.352s9.186-23.705,9.186-28.334
	C22.749,10.021,21.576,0,11.741,0C5.434,0,2.229,3.344,1.194,5.958C-0.371,9.907-0.793,14.779,2.397,22.316 M6.13,12.056
	c0-2.944,2.362-5.168,5.308-5.168c2.946,0,4.688,2.173,4.688,5.118c0,2.946-2.499,4.962-5.445,4.962
	C7.736,16.968,6.13,14.425,6.13,12.056"/>
</svg>
