<?xml version="1.0" encoding="utf-8"?>
<!-- Generator: Adobe Illustrator 16.0.0, SVG Export Plug-In . SVG Version: 6.00 Build 0)  -->
<!DOCTYPE svg PUBLIC "-//W3C//DTD SVG 1.1//EN" "http://www.w3.org/Graphics/SVG/1.1/DTD/svg11.dtd">
<svg version="1.1" id="Layer_1" xmlns="http://www.w3.org/2000/svg" xmlns:xlink="http://www.w3.org/1999/xlink" x="0px" y="0px"
	 width="52.488px" height="29.584px" viewBox="0 0 52.488 29.584" enable-background="new 0 0 52.488 29.584" xml:space="preserve">
<path fill="#010101" d="M49.669,16.628C37.801,15.481,30.7,2.373,18.458,1.219C10.689,0.484,3.266,4.772,1.43,12.757
	c-2.065,8.989,4.661,14.292,12.725,15.898c5.613,1.12,11.675,1.384,17.229-0.09c6.494-1.724,12.285-5.79,18.989-6.723
	c3.369-0.468,1.936-5.581-1.408-5.119c-8.078,1.122-14.833,6.672-23.038,7.465c-4.644,0.449-12.421,0.353-16.213-2.541
	c-9.878-7.527,1.518-15.417,7.773-15.112c12.298,0.608,19.755,14.2,32.182,15.401C53.068,22.264,53.045,16.957,49.669,16.628"/>
</svg>
