<?xml version="1.0" encoding="utf-8"?>
<!-- Generator: Adobe Illustrator 17.1.0, SVG Export Plug-In . SVG Version: 6.00 Build 0)  -->
<!DOCTYPE svg PUBLIC "-//W3C//DTD SVG 1.1//EN" "http://www.w3.org/Graphics/SVG/1.1/DTD/svg11.dtd">
<svg version="1.1" id="Layer_1" xmlns="http://www.w3.org/2000/svg" xmlns:xlink="http://www.w3.org/1999/xlink" x="0px" y="0px"
	 viewBox="72.3 0 125.4 162" enable-background="new 72.3 0 125.4 162" xml:space="preserve">
<g id="Flat_copy">
	<path fill="#999999" d="M197.7,53.3c0,36.5-20.3,63.8-50.2,63.8c-10,0-19.5-5.4-22.7-11.6c0,0-5.4,21.4-6.5,25.6
		c-4,14.6-15.9,29.2-16.8,30.5c-0.6,0.8-2.1,0.6-2.2-0.5c-0.3-1.9-3.3-20.3,0.3-35.4c1.8-7.6,12-50.7,12-50.7s-3-5.9-3-14.7
		c0-13.8,8-24.1,17.9-24.1c8.5,0,12.5,6.3,12.5,14c0,8.5-5.4,21.2-8.2,33c-2.3,9.9,5,17.9,14.7,17.9c17.6,0,29.5-22.6,29.5-49.5
		c0-20.4-13.7-35.7-38.7-35.7c-28.2,0-45.8,21-45.8,44.6c0,8.1,2.4,13.8,6.1,18.3c1.7,2,2,2.9,1.3,5.2c-0.5,1.7-1.5,5.8-1.9,7.5
		c-0.6,2.4-2.5,3.2-4.7,2.3c-13-5.3-19.1-19.5-19.1-35.5C72.3,31.7,94.6,0,138.8,0C174.3,0,197.7,25.7,197.7,53.3z"/>
</g>
</svg>
