<?xml version="1.0" encoding="utf-8"?>
<!-- Generator: Adobe Illustrator 17.1.0, SVG Export Plug-In . SVG Version: 6.00 Build 0)  -->
<!DOCTYPE svg PUBLIC "-//W3C//DTD SVG 1.1//EN" "http://www.w3.org/Graphics/SVG/1.1/DTD/svg11.dtd">
<svg version="1.1" id="Layer_1" xmlns="http://www.w3.org/2000/svg" xmlns:xlink="http://www.w3.org/1999/xlink" x="0px" y="0px"
	 viewBox="38.8 10.7 199.3 162" enable-background="new 38.8 10.7 199.3 162" xml:space="preserve">
<path d="M238,29.7c-7.3,3.2-15.4,5.3-23.5,6.5c8.5-4.9,15-13,17.8-22.7c-8.1,4.9-16.6,8.1-25.9,10.1c-7.3-8.1-18.2-13-30-13
	c-22.7,0-40.9,18.2-40.9,40.9c0,3.2,0.4,6.5,1.2,9.3c-34-2-64-18.2-84.2-42.9c-3.6,6.1-5.7,13-5.7,20.7c0,14.2,7.3,26.7,18.2,34
	c-6.9-0.4-13-2-18.6-5.3v0.4c0,19.8,14.2,36.4,32.8,40.1c-3.2,0.8-6.9,1.6-10.9,1.6c-2.8,0-5.3-0.4-7.7-0.8
	c5.3,16.2,20.2,27.9,38.1,28.4c-13.4,10.9-31.2,17.8-50.2,17.8c-3.2,0-6.5,0-9.7-0.4c18.2,11.7,39.7,18.2,62.8,18.2
	c75.3,0,116.6-62.4,116.6-116.6c0-1.6,0-3.6,0-5.3C225.9,45.1,232.8,37.8,238,29.7z"/>
</svg>
