<?xml version="1.0" encoding="utf-8"?>
<!-- Generator: Adobe Illustrator 22.0.1, SVG Export Plug-In . SVG Version: 6.00 Build 0)  -->
<svg version="1.1" id="Layer_1" xmlns="http://www.w3.org/2000/svg" xmlns:xlink="http://www.w3.org/1999/xlink" x="0px" y="0px"
	 viewBox="0 0 25 25" style="enable-background:new 0 0 25 25;" xml:space="preserve">
<style type="text/css">
	.st0{fill:#999999;}
</style>
<g>
	<path class="st0" d="M3.3,17.2c0.1-0.4-0.5-1.7-0.8-1.9c-0.2,0.2-1.4,1.3-1.3,1.6c0.2,0.4,1.4,0.3,1.8,0.4
		C3.1,17.1,3.3,17.2,3.3,17.2z"/>
	<path class="st0" d="M2.9,19.6c0.1,0.1,1.8-0.2,1.8-0.2c-0.2-0.2-1.1-1.5-1.3-1.7C3.3,18.1,2.6,19.2,2.9,19.6z"/>
	<path class="st0" d="M5.4,19.8c-0.2,0.1-0.2,1.5-0.3,1.8c-0.3,1.2,1.4-0.2,2.1-0.5C7,21,6.9,20.9,6.8,20.8
		C6.5,20.6,5.7,19.8,5.4,19.8z"/>
	<path class="st0" d="M7.8,21.2c-0.1,0.6,0.3,2,0.5,2.2c0.3,0.1,1.9-1.4,1.5-1.6C9,21.6,8.7,21.6,7.8,21.2z"/>
	<path class="st0" d="M10.8,22c0.2,0.4,0.7,1.6,1.1,1.8c0.5,0.2,1.3-1.4,1.4-1.7c-0.1,0-0.7-0.1-0.8-0.1C11.9,22,11.4,21.9,10.8,22z
		"/>
	<path class="st0" d="M14.2,21.7c0.4,0.5,1.2,1.1,1.8,1.1c0.4,0,0.8-1.4,0.8-2c-0.1,0-0.6,0.3-0.7,0.3
		C15.7,21.1,14.4,21.4,14.2,21.7z"/>
	<path class="st0" d="M19.3,19.6C19.3,19.7,19.3,19.4,19.3,19.6L19.3,19.6z"/>
	<path class="st0" d="M19.1,18.8c-0.4,0.3-1.6,1.1-1.8,1.5c-0.2,0.4,1.8,0.8,2.1,0.7c0.3-0.1-0.1-1-0.1-1.4
		C19.3,19.3,19.3,19.1,19.1,18.8z"/>
	<path class="st0" d="M19.4,18.3c0.2,0.3,1.9,0.2,2.3-0.3c0.3-0.4-0.9-1.5-1.1-2C20.4,16.6,19.2,18,19.4,18.3z"/>
	<path class="st0" d="M21.3,13.1c-0.1,0.3-0.8,2.4-0.4,2.5c0.3,0.1,1.8-0.5,1.8-0.9C22.8,14.5,21.7,13.3,21.3,13.1z"/>
	<path class="st0" d="M21.7,10.1c-0.1,0.4-0.2,2.2,0,2.4c0.3,0.5,1.8-0.8,1.8-1.1C23.3,10.8,21.8,10.2,21.7,10.1z"/>
	<path class="st0" d="M20.8,7.9C20.8,7.9,20.8,7.9,20.8,7.9c0.3,0.3,0.6,1.3,1.1,1.4c0.2-0.5,0.9-1.9,0.7-2.1c-0.3-0.3-1.4,0-2,0.3
		C20.6,7.7,20.7,7.8,20.8,7.9z"/>
	<path class="st0" d="M20.2,6.8C20.3,6.3,21,5,20.7,4.6c-0.1-0.1-2.4-0.2-2.1,0.3C19.1,5.4,19.9,6.2,20.2,6.8z"/>
	<path class="st0" d="M16.8,3.8c0.2,0.1,0.7,0.4,0.9,0.5c0.1-0.1,0-2-0.2-2.1c-0.2-0.1-1.8,0.8-2,0.9C16,3.3,16.4,3.6,16.8,3.8
		C16.9,3.8,16.9,3.8,16.8,3.8z"/>
	<path class="st0" d="M14.5,2.9C14.1,2.8,14.6,2.9,14.5,2.9L14.5,2.9z"/>
	<path class="st0" d="M14.9,2.3c-0.2-0.3-0.1-1.1-0.5-1.2c-0.2-0.1-1.2,0.9-1.6,1.4c0.5,0.1,1.2,0.3,1.7,0.3
		C14.9,2.9,15.2,2.9,14.9,2.3z"/>
	<path class="st0" d="M11.8,2.6C11.8,2.6,11.8,2.6,11.8,2.6c0.4,0,0.6,0,0.4-0.4c-0.1-0.4-0.6-1.4-1-1.4c-0.3,0-0.6,1.3-1,1.8
		C10.7,2.6,11.3,2.6,11.8,2.6z"/>
	<path class="st0" d="M9.7,2.6C9.5,2.4,7.9,1.2,7.7,1.4C7.3,1.6,7.3,3.4,7.5,3.6C8.1,3.4,9.2,2.9,9.7,2.6z"/>
	<path class="st0" d="M6.9,3.8c-0.5-0.3-2-0.5-2.1-0.5C4.4,3.5,4.9,4.9,4.9,5.4C5.1,6,6.7,4,6.9,3.8z"/>
	<path class="st0" d="M3.3,7.9c0.3,0,1.1-1.5,1.4-1.8C4.3,5.8,2.1,5.8,2.2,6.2C2.2,6.7,3,7.9,3.3,7.9z"/>
	<path class="st0" d="M3.1,8.7C2.6,9,1.1,9.1,0.9,9.3c-0.2,0.2,1.1,1.7,1.4,2C2.7,10.5,3,9.6,3.1,8.7z"/>
	<path class="st0" d="M2.4,12.1C2,12.4,1,12.8,0.9,13.3c0.1,0,1,1,1.6,1.1C2.7,13.8,2.4,12.8,2.4,12.1z"/>
	<path class="st0" d="M17.6,19C17.6,19,17.6,19,17.6,19C17.6,19,17.6,19,17.6,19C17.6,19,17.6,19,17.6,19z"/>
	<path class="st0" d="M5.3,6.9C5.1,7.1,5,7.3,4.8,7.5c0,0-0.1,0-0.1,0c-1,0.2-1.2,1.6-1.1,1.9c0,0.1,0,0.2,0.1,0.4
		c-0.1,0.3-0.1,0.5-0.2,0.8c-0.1,1-0.4,2-0.4,3.1c0,1.3,0.6,2.5,1.1,3.6c0.9,2.2,3,3.4,5.2,3.9c0.9,0.2,1.8,0.2,2.7,0.3
		c0.1,0,0.2,0,0.3,0c1.1,0,2-0.5,3.1-0.8c0.6-0.5,1.4-0.9,2-1.4c0,0,0,0,0,0l0,0c0,0,0,0,0,0c0.5-0.4,0.9-0.8,1.2-1.4
		c0.2-0.4,0.6-1,0.7-1.4c0.1-0.5,0.4-1,0.6-1.5c0.2-0.5,0.3-1,0.4-1.5c0.1-0.5,0.2-1.1,0.2-1.7c0.5-0.5,0.6-1.1,0.7-1.7
		c0.1-0.6-0.6-1.1-1.4-1.5c-0.2-0.4-0.4-0.7-0.6-1.1c-0.4-1-1.1-1.9-2.1-2.3c-1.2-0.5-2.1-1.4-3.4-1.6c-0.4-0.1-0.8-0.1-1.3-0.1
		c-1.7,0-3.5,0.4-4.9,1.1C6.6,5,6,6,5.3,6.9z M19.9,13.1c-0.1,0.4-0.2,0.9-0.4,1.4c-0.1,0.2-0.1,0.3-0.2,0.5
		c-0.2,0.3-0.3,0.7-0.4,1.1c0,0.2-0.2,0.5-0.4,0.8c-0.1,0.1-0.2,0.3-0.2,0.4c-0.2,0.4-0.5,0.7-1,1.1l0,0l0,0l-0.1,0.1
		c-0.3,0.3-0.6,0.5-1,0.7c-0.3,0.2-0.6,0.4-0.9,0.6c-0.3,0.1-0.6,0.2-0.9,0.3c-0.6,0.2-1.2,0.5-1.9,0.5c-0.1,0-0.2,0-0.2,0
		c-0.3,0-0.5,0-0.8,0c-0.6,0-1.2-0.1-1.9-0.2c-1.7-0.4-3.8-1.3-4.8-3.5c-0.1-0.1-0.1-0.3-0.2-0.4c-0.4-1-0.8-2-0.9-3
		c0-0.6,0.1-1.2,0.2-1.9C4,11.3,4.1,11,4.1,10.6c0,0,0-0.1,0-0.1c0.7,0.9,2.3,2,5.4,1.6c0.7-0.1,1.3-0.6,1.8-1.6
		c0.1-0.2,0.5-0.6,0.9-0.6c0.6,0,0.8,0.5,0.9,0.7c0.5,1.2,2.2,1.8,3,1.9c1.8,0.2,3,0,3.8-0.4c0,0.1,0,0.2,0,0.3
		C19.9,12.6,19.9,12.9,19.9,13.1z M12.6,3.9c0.4,0,0.8,0,1.2,0.1c0.7,0.1,1.3,0.5,1.9,0.8c0.4,0.2,0.8,0.5,1.3,0.7
		c0.9,0.4,1.5,1.3,1.8,2c0.1,0.2,0.2,0.4,0.3,0.5c-1.9-0.4-4.1,0-4.7,0.1c-1,0.3-1,0.5-1,0.5s-1.1-0.4-1.8,0c0,0-1.6-0.9-2.6-1
		C8.1,7.5,6.8,7.3,5.6,7.4c0,0,0.1-0.1,0.1-0.1C5.8,7.1,6,7,6.1,6.8C6.6,6.1,7.2,5.4,7.9,5C9.3,4.3,11,3.9,12.6,3.9z"/>
	<path class="st0" d="M17.2,14.5c-0.3-0.2-0.7-0.2-1.2-0.1c-0.1,0-0.3,0.2-0.3,0.4c0,0.1,0.2,0.2,0.3,0.3c0,0,0.1,0,0.1,0
		c-0.1,0.6-0.4,1.1-1,1.6c-0.9,0.7-1.9,1.1-3.1,1.1c-0.4,0-0.8,0-1.3-0.1c-1.6-0.3-2.6-1.1-3-2.2c0-0.1-0.1-0.2-0.1-0.3
		c0.2,0,0.3-0.1,0.4-0.3c0-0.1,0-0.2,0-0.3c0-0.1-0.1-0.1-0.3-0.2c-0.5-0.1-0.9-0.1-1.3,0.1c-0.1,0.1-0.2,0.1-0.2,0.2
		c0,0.1,0,0.2,0.1,0.3c0.1,0.1,0.3,0.2,0.4,0.2c0.3,1.8,2.2,3.2,4.6,3.4c0.2,0,0.4,0,0.6,0c1.1,0,2.2-0.2,3.1-0.7
		c1.1-0.6,1.8-1.5,2-2.5c0.2,0,0.3,0,0.4-0.2c0.1-0.1,0.1-0.2,0.1-0.3C17.5,14.6,17.3,14.5,17.2,14.5z"/>
</g>
</svg>
