<?xml version="1.0" encoding="utf-8"?>
<!-- Generator: Adobe Illustrator 17.1.0, SVG Export Plug-In . SVG Version: 6.00 Build 0)  -->
<!DOCTYPE svg PUBLIC "-//W3C//DTD SVG 1.1//EN" "http://www.w3.org/Graphics/SVG/1.1/DTD/svg11.dtd">
<svg version="1.1" id="Layer_1" xmlns="http://www.w3.org/2000/svg" xmlns:xlink="http://www.w3.org/1999/xlink" x="0px" y="0px"
	 viewBox="3.7 16 49.3 21.4" enable-background="new 3.7 16 49.3 21.4" xml:space="preserve">
<path fill="#999999" d="M6.1,36.2c0.1,0,0.2-0.1,0.2-0.2l0.6-4.3l-0.6-4.4c0-0.1-0.1-0.2-0.2-0.2s-0.2,0.1-0.2,0.2
	c0,0-0.5,4.4-0.5,4.4L5.9,36C5.9,36.1,6,36.2,6.1,36.2z M4.5,34.4C4.5,34.4,4.5,34.4,4.5,34.4L4.5,34.4L4.5,34.4z M4.3,34.6
	c0.1,0,0.2-0.1,0.2-0.2l0.4-2.7l-0.4-2.7c0-0.1-0.1-0.2-0.2-0.2c-0.1,0-0.2,0.1-0.2,0.2l-0.4,2.7l0.4,2.7
	C4.1,34.5,4.2,34.6,4.3,34.6z M8.3,26.4c0-0.1-0.1-0.2-0.2-0.2c-0.1,0-0.2,0.1-0.2,0.2c0,0-0.5,5.3-0.5,5.3l0.5,5.1
	C7.8,36.9,7.9,37,8,37c0.1,0,0.2-0.1,0.2-0.2l0.5-5.1L8.3,26.4z M10,37.2c0.1,0,0.3-0.1,0.3-0.3l0,0l0.5-5.2l-0.5-5.4
	c0-0.2-0.1-0.3-0.3-0.3c-0.2,0-0.3,0.1-0.3,0.3l-0.4,5.4l0.4,5.2C9.7,37.1,9.8,37.2,10,37.2z M11.9,37.3c0.2,0,0.3-0.1,0.3-0.3v0
	l0.5-5.3l-0.5-5c0-0.2-0.2-0.3-0.3-0.3c-0.2,0-0.3,0.1-0.3,0.3l-0.4,5l0.4,5.3C11.6,37.1,11.8,37.3,11.9,37.3z M14.7,31.7l-0.4-8.1
	c0-0.2-0.2-0.4-0.4-0.4c-0.2,0-0.4,0.2-0.4,0.4l-0.4,8.1l0.4,5.3c0,0.2,0.2,0.4,0.4,0.4c0.2,0,0.4-0.2,0.4-0.4v0L14.7,31.7z
	 M15.9,37.3c0.2,0,0.4-0.2,0.4-0.4v0l0.4-5.2l-0.4-10c0-0.2-0.2-0.4-0.4-0.4s-0.4,0.2-0.4,0.4l-0.4,10l0.4,5.2
	C15.5,37.2,15.7,37.3,15.9,37.3z M17.9,20.4c-0.2,0-0.4,0.2-0.5,0.5l-0.3,10.8l0.3,5.2c0,0.3,0.2,0.5,0.5,0.5c0.2,0,0.4-0.2,0.5-0.5
	v0l0.4-5.2l-0.4-10.8C18.4,20.6,18.2,20.4,17.9,20.4z M20,37.3c0.3,0,0.5-0.2,0.5-0.5v0l0.4-5.1l-0.4-11.2c0-0.3-0.2-0.5-0.5-0.5
	c-0.3,0-0.5,0.2-0.5,0.5l-0.3,11.2l0.3,5.1C19.5,37.1,19.7,37.3,20,37.3z M22,37.3c0.3,0,0.5-0.2,0.5-0.5v0l0.3-5.1l-0.3-10.9
	c0-0.3-0.2-0.5-0.5-0.5c-0.3,0-0.5,0.2-0.5,0.5l-0.3,10.9l0.3,5.1C21.5,37.1,21.7,37.3,22,37.3z M25,31.7l-0.3-10.5
	c0-0.3-0.3-0.6-0.6-0.6c-0.3,0-0.6,0.3-0.6,0.6l-0.3,10.5l0.3,5.1c0,0.3,0.3,0.6,0.6,0.6c0.3,0,0.6-0.3,0.6-0.6v0L25,31.7z
	 M26.2,37.3c0.3,0,0.6-0.3,0.6-0.6v0l0.3-5l-0.3-12.5c0-0.3-0.3-0.6-0.6-0.6c-0.3,0-0.6,0.3-0.6,0.6l-0.2,12.5c0,0,0.2,5,0.2,5
	C25.5,37.1,25.8,37.3,26.2,37.3z M28.2,17.4c-0.4,0-0.7,0.3-0.7,0.7l-0.3,13.7l0.3,5c0,0.4,0.3,0.7,0.7,0.7s0.7-0.3,0.7-0.7v0l0.3-5
	L28.9,18C28.9,17.7,28.6,17.4,28.2,17.4z M30.1,37.3c0,0,16.7,0,16.8,0c3.3,0,6.1-2.7,6.1-6.1s-2.7-6.1-6.1-6.1
	c-0.8,0-1.6,0.2-2.3,0.5c-0.5-5.5-5.1-9.8-10.7-9.8c-1.4,0-2.7,0.3-3.9,0.7c-0.5,0.2-0.6,0.4-0.6,0.7v19.2
	C29.5,37,29.8,37.3,30.1,37.3z"/>
</svg>
