<svg xmlns="http://www.w3.org/2000/svg" viewBox="0 0 110.8 74"><path d="M55.4 1.1c-29.8 0-54 16.1-54 36s24.2 36 54 36 54-16.1 54-36c0-19.8-24.2-36-54-36zm36.4 58.8c-9.7 6.4-22.6 10-36.4 10-13.8 0-26.7-3.6-36.4-10C9.8 53.7 4.7 45.6 4.7 37.1s5.1-16.6 14.4-22.8c9.7-6.4 22.6-10 36.4-10 13.8 0 26.7 3.6 36.4 10 9.3 6.2 14.4 14.3 14.4 22.8-.1 8.5-5.2 16.6-14.5 22.8z"/><path d="M30.2 15.8c-.2.9-.4 1.3-.6 2.2-1.2-1.8-2.7-2.1-3.7-2-.8.1-1.3.6-1.8 1.5-.6 1.4-1.3 3.7-2 6.8-.6 3.1-.9 6.3-.8 9.7 0 1.5.1 2.9.1 4.4.2 4.7.4 8.7 1.1 11.9.4 1.7 1.1 2.9 2 3.6.9.6 2.3.9 3.2.8 1.3-.1 2.3-.7 2.8-2.3.6-2 .9-5 1-8.9 0-1.4.1-2.8.2-4.2 0-.2 0-.3-.1-.4 0-.1-.8-.1-.9-.1-.1 0-.4.1-.5.1-.1.1-.1.2-.1.4-.1 1.4-.2 2.5-.3 3.9-.1 2.5-.3 4.6-.6 6.7-.1 1-.4 1.8-.8 2.5-.4.6-.7.8-1.3.9-.3 0-.8 0-1-.3-.4-.3-.7-.9-.9-1.7-2.9-10.7 3.5-20.4.8-31.1-.2-.9-.3-1.4-.2-1.9.1-.4.4-.6.7-.6.5 0 .9 0 1.4.5 1.3 1.1 2 2.8 2.5 5.6.4 2.1.5 3.6.5 5.7v1.6c0 .1.1.1.2.1s1.2-.2 1.2-.2c0-.1.1-.2.1-.3.4-4.9.1-10.2-1.5-14.9h-.7zM52.9 47.3c-.1-.1-.7-.4-1-.3-.1 0-.1 0-.2.1 0 .1-.1.3 0 .6.1 1.7.3 2.9.1 3.6-.1.4-.2.6-.5.6-.2 0-.3-.1-.5-.2-.2-.2-.3-.5-.4-.9-.8-3-.9-6-.6-9 .2-1.5.2-2.8 0-3.8s-.4-1.8-1-2.5c-.4-.4-.9-.8-1.9-1.3 1.1-.5 1.5-.5 2.1-1 1.2-.9 1.8-2.1 2.4-3.6.5-1.3 1-2.7 1-4.3.1-2.8-.7-4.9-1.7-6.8-1.2-2.2-3.6-2.4-5-2.4h-6.6c-.1 0-.1.1-.1.2s.3 1.2.5 1.3h1.1c3.7 12-4.5 22.6-.7 34.6h-1.1c-.1 0-.1 0-.2.1v.8c0 .1.1.2.1.2.1.1.1.1.2.1 2 0 4.3-.1 6.3-.1.1 0 .2 0 .2-.1V53c0-.1-.2-.6-.2-.7-.1-.1-.2-.1-.3-.1H44c-2.1-6.1-1-11.2.1-17.3.9 0 1.9.1 2.3.4.4.3.5.9.3 2-.8 4.4-1.2 8.4-.3 12.7.2 1.1.8 2 1.5 2.6.7.6 1.5.9 2.4.9 1 0 2.4-.4 2.7-1.4.3-1 .2-2.4 0-4.3 0-.2 0-.4-.1-.5zm-8.4-13.9c1-5.7 2-10 .1-15.7H46c.4 0 .7.1 1.2.4.5.3.7.8.9 1.5 1 4.3.6 7.3-.2 11.6-.1.6-.4 1.2-.7 1.6-.3.4-.7.6-1.2.6-.3-.1-1.2 0-1.5 0zM72.6 51.8h-.9c-6-11.7 1-22.9-4.9-34.8h-3.5c3.5 10.7-4.8 20.9-3.6 31.6.2 1.3.3 2.2.2 2.8-.1.4-.2.5-.5.6-.1 0-.2.1-.3.1 0 .1-.1.6 0 .7 0 .1.1.2.2.2.1.1.2.1.3.1H64c.1 0 .1 0 .1-.1v-.3c0-.1-.1-.6-.2-.6s-.2-.1-.4-.1c-.4-.1-.7-.3-1-.6-.3-.4-.5-.8-.7-1.5-.1-.2-.1-.6-.2-.8-.2-1.3-.4-1.9-.3-3.2H65c.3 2.3.5 3.7 1.7 6h-.8c-.1 0-.1 0-.1.1s.3.7.4.8c0 .1.1.2.2.2.1.1.1.1.2.1 2 0 4.5-.1 6.4-.1.1-.1.1-.2.1-.3-.1-.1-.3-.8-.5-.9zM65 44.5c-1.2 0-2.4.1-3.5.1.5-6.3 3.6-11.7 4-18.2.3 6.3-1.3 11.8-.5 18.1zM90 25.3c-.2-1.5-.4-2.8-.8-3.9-.3-.8-.7-1.6-1.3-2.4-.6-.8-1.4-1.4-2.1-1.8-1-.5-3-.7-3.9-.7-1.9.1-4.4.1-6.3.2-.1 0-.1 0-.1.1v.2c0 .1.2 1.3.3 1.3.1.1.1.1.2.1h1.2c5.1 11.5-2.7 22 2.4 33.4-.4 0-.9 0-1.3.1-.1 0-.1 0-.1.1v.2c0 .1.4.5.5.5.1 0 .1.1.2.1 2.3-.1 5-.2 7.3-.4.1 0 .1 0 .1-.1v-.2c0-.1-.1-.6-.2-.6s-.2-.1-.2-.1c-.4 0-.9.1-1.3.1-2.5-4.8-2.5-9.4-2-14.4h2.1c1.1-.1 2.2-.5 3.2-1.3s1.7-1.9 2.1-3.2c.4-1.3.4-2.9.2-4.6 0-1.1-.1-1.9-.2-2.7zm-4 7.8c0 .7-.2 1.3-.6 1.7-.4.4-.8.6-1.4.7h-1.2c.7-6.5 1.9-10.8-1.3-17.1H83c.4.1.7.2.9.4.5.4.9 1 1.2 1.8 1.6 4.9 1.1 7.6.9 12.5z"/><g><path d="M39.4 62.1c.2.2.4.2.7.2.2 0 .4-.1.6-.2.2-.1.3-.2.3-.4h1c-.2.5-.4.8-.7 1.1s-.7.3-1.2.3c-.3 0-.6 0-.9-.1-.3-.1-.5-.2-.7-.4-.2-.2-.3-.4-.4-.7-.1-.2-.1-.5-.1-.9 0-.3 0-.6.1-.9.1-.3.2-.5.4-.7.2-.2.4-.3.7-.5.3-.1.5-.2.9-.2s.7.1.9.2c.3.1.5.3.6.5.2.2.3.5.4.8.1.3.1.6.1.9h-3c0 .6.1.8.3 1zm1.2-2.2c-.1-.1-.3-.2-.6-.2-.2 0-.3 0-.4.1-.1.1-.2.1-.3.2-.1.1-.1.2-.1.3v.3H41c-.1-.3-.2-.5-.4-.7zM45.1 64.3c-.2.1-.5.2-.9.2h-.6v-.9h.6c.1 0 .3-.1.3-.2.1-.1.1-.2.1-.3v-.3L43 58.9h1.2l1 2.8.9-2.8h1.2l-1.7 4.6c-.1.4-.3.6-.5.8zM49.7 61.9c.2.2.4.2.7.2.2 0 .4-.1.6-.2.2-.1.3-.2.3-.4h1c-.2.5-.4.8-.7 1.1s-.8.4-1.2.4c-.3 0-.6 0-.9-.1-.3-.1-.5-.2-.7-.4-.2-.2-.3-.4-.4-.7-.1-.3-.2-.6-.2-.9 0-.3 0-.6.1-.9.1-.3.2-.5.4-.7s.4-.3.7-.5c.3-.1.5-.2.9-.2s.7.1.9.2c.3.1.5.3.6.5.2.2.3.5.4.8.1.3.1.6.1.9h-3c.1.5.2.7.4.9zm1.2-2.2c-.1-.1-.3-.2-.6-.2-.2 0-.3 0-.4.1-.1.1-.2.1-.3.2-.1.1-.1.2-.1.3v.3h1.8c-.1-.3-.2-.5-.4-.7zM57.4 62.8l-.8-2.8-.7 2.8h-1.2l-1.3-4.1h1.2l.8 2.8.7-2.8h1.1l.7 2.8.7-2.8h1.2l-1.3 4.1h-1.1zM62.3 61.7c.2.2.4.2.7.2.2 0 .4-.1.6-.2.2-.1.3-.2.3-.4h1c-.2.5-.4.8-.7 1.1-.3.2-.7.3-1.2.3-.3 0-.6 0-.9-.1-.3-.1-.5-.2-.7-.4-.2-.2-.3-.4-.4-.7-.1-.3-.2-.6-.2-.9 0-.3 0-.6.1-.9.1-.3.2-.5.4-.7.2-.2.4-.3.7-.5.3-.1.5-.2.9-.2s.7.1.9.2c.3.1.5.3.6.5.2.2.3.5.4.8.1.3.1.6.1.9h-3c.2.6.2.9.4 1zm1.3-2.2c-.1-.1-.3-.2-.6-.2-.2 0-.3 0-.4.1-.1.1-.2.1-.3.2-.1.1-.1.2-.1.3v.3H64c-.2-.3-.3-.5-.4-.7zM66.4 59.8c0-.3.1-.5.2-.7.1-.2.3-.3.4-.4.2-.1.4-.2.6-.2.2 0 .5-.1.7-.1h.6c.2 0 .4.1.6.2.2.1.3.2.4.4.1.2.2.4.2.6v2.6c0 .2.1.3.1.4h-1.1c0-.1 0-.1-.1-.2v-.2c-.2.2-.4.3-.6.4-.2.1-.5.1-.7.1-.2 0-.4 0-.5-.1-.2 0-.3-.1-.4-.2-.1-.1-.2-.2-.3-.4-.1-.2-.1-.3-.1-.5s0-.4.1-.6c.1-.2.2-.3.3-.4.1-.1.3-.2.4-.2.2 0 .3-.1.5-.1s.3-.1.5-.1.3 0 .4-.1c.1 0 .2-.1.3-.1.1.1.1 0 .1-.2 0-.1 0-.2-.1-.3 0-.1-.1-.1-.2-.2-.1 0-.1-.1-.2-.1h-.3c-.2 0-.4 0-.5.1-.1.1-.2.3-.2.5l-1.1.1zm2.6.8s-.1.1-.2.1-.1 0-.2.1H68c-.1 0-.2 0-.2.1-.1 0-.2.1-.2.1-.1 0-.1.1-.1.2s-.1.2-.1.3c0 .1 0 .2.1.3 0 .1.1.1.2.2.1 0 .1.1.2.1h.3c.2 0 .4 0 .5-.1l.3-.3c.1-.1.1-.2.1-.3v-.3l-.1-.5zM72.9 58.6v.8c.1-.1.1-.2.2-.4s.2-.2.3-.3c.1-.1.2-.1.4-.2.1 0 .3-.1.4-.1h.2v1.1H74c-.2 0-.4 0-.5.1-.1.1-.3.2-.3.3-.1.1-.1.3-.2.4 0 .2-.1.3-.1.5v1.9h-1.1v-4.1h1.1z"/></g></svg>