<?xml version="1.0" encoding="utf-8"?>
<!-- Generator: Adobe Illustrator 17.1.0, SVG Export Plug-In . SVG Version: 6.00 Build 0)  -->
<!DOCTYPE svg PUBLIC "-//W3C//DTD SVG 1.1//EN" "http://www.w3.org/Graphics/SVG/1.1/DTD/svg11.dtd">
<svg version="1.1" id="Layer_1" xmlns="http://www.w3.org/2000/svg" xmlns:xlink="http://www.w3.org/1999/xlink" x="0px" y="0px"
	 viewBox="0 0 62 35" enable-background="new 0 0 62 35" xml:space="preserve">
<g>
	<path fill="#010101" d="M7.9,0C7.7,0.8,7.5,1.6,7.3,2.4C6.3,0.8,5,0.1,4.1,0.2C3.3,0.2,2.9,0.7,2.5,1.5C1.9,2.8,1.3,4.9,0.7,7.7
		c-0.6,2.8-0.8,5.7-0.7,8.7c0,1.3,0.1,2.6,0.1,3.9c0.2,4.2,0.3,7.8,1,10.7c0.4,1.6,1,2.6,1.8,3.2c0.8,0.6,2,0.8,2.9,0.7
		c1.2-0.1,2-0.6,2.5-2.1c0.6-1.8,0.8-4.5,0.9-8c0-1.2,0.1-2.5,0.2-3.8c0-0.1,0-0.3-0.1-0.4c0-0.1-0.6-0.1-0.6-0.1
		c-0.1,0-0.4,0.1-0.4,0.1c-0.1,0.1-0.1,0.2-0.1,0.3c-0.1,1.3-0.2,2.5-0.3,3.8c-0.1,2.3-0.3,4.1-0.5,6c-0.1,0.9-0.3,1.7-0.7,2.2
		C6.3,33.7,6,34,5.5,34c-0.4,0-0.8-0.1-1.1-0.4c-0.3-0.3-0.6-0.8-0.8-1.5C0.9,22.5,6.7,13.3,4.2,3.7C4,2.9,3.9,2.3,4,1.9
		c0.1-0.3,0.2-0.5,0.5-0.5c0.4,0,0.9,0.1,1.3,0.5C7,2.9,8,4.6,8.4,7.1c0.3,1.9,0.4,3.2,0.4,5.1c0,0.4,0,0.8,0,1.2c0,0.1,0,0.2,0,0.3
		c0,0.1,0.1,0.1,0.1,0.1c0.1,0,0.8,0,0.9-0.1c0-0.1,0.1-0.2,0.1-0.3C10.2,9,10,4.2,8.5,0C8.5,0,8,0,7.9,0z"/>
	<path fill="#010101" d="M28.1,28.2c-0.1-0.1-0.5-0.2-0.7-0.2c-0.1,0-0.1,0-0.1,0.1c0,0.1-0.1,0.3,0,0.5c0.1,1.5,0.2,2.6,0.1,3.2
		c-0.1,0.4-0.2,0.6-0.4,0.6c-0.1,0-0.3-0.1-0.4-0.2c-0.1-0.1-0.3-0.4-0.4-0.8c-0.7-2.7-0.8-5.4-0.5-8.1c0.1-1.4,0.2-2.5,0-3.4
		c-0.2-0.9-0.5-1.6-1.1-2.2c-0.3-0.4-1-0.8-1.9-1.2c1-0.4,1.7-0.8,2.3-1.3c0.9-0.7,1.6-1.7,2.1-2.8c0.5-1.1,0.9-2.4,0.9-3.9
		c0.1-2.5-0.7-4.6-2-6c-1.3-1.5-2.8-2.2-4-2.3c-1.7,0-4.3,0-6,0c-0.1,0.1-0.1,0.2-0.1,0.3c0,0.1,0.1,0.4,0.3,0.5c0.3,0,0.6,0,1,0
		c3.3,10.8-3.8,21.3-0.4,32.2c-0.3,0-0.7,0-1,0c-0.1,0-0.1,0-0.2,0.1c0,0.1,0,0.3,0,0.4c0,0.1,0.1,0.2,0.1,0.2
		c0.1,0,0.1,0.1,0.2,0.1c1.8,0,3.9-0.1,5.7-0.1c0.1,0,0.1,0,0.2-0.1c0-0.1,0-0.1,0-0.2c0-0.1-0.1-0.3-0.1-0.4
		C21.4,33,21.3,33,21.2,33c-0.3,0-0.6,0-0.8,0c-1.9-5.4-0.9-10.6,0.1-16.1c0.8,0,1.9,0.1,2.1,0.3c0.3,0.3,0.4,0.9,0.2,1.9
		c-0.7,3.9-1.2,7.9-0.3,11.8c0.2,1,0.7,1.8,1.3,2.3c0.6,0.5,1.4,0.8,2.2,0.8c0.9,0,2-0.5,2.3-1.4c0.3-0.9,0.2-2.2,0-3.8
		C28.2,28.5,28.1,28.3,28.1,28.2z M20.6,16.1c0.9-5.1,1.8-10,0.1-15.1c0.3,0,1.1,0,1.4,0c0.5,0,0.9,0.1,1.2,0.4
		c0.3,0.3,0.5,0.7,0.7,1.4c0.9,3.9,0.5,7.5-0.2,11.4c-0.1,0.7-0.3,1-0.6,1.4c-0.3,0.4-0.7,0.5-1.1,0.5
		C21.7,16.1,20.9,16.1,20.6,16.1z"/>
	<path fill="#010101" d="M46.1,32.5c-0.3,0-0.5,0-0.8,0C39.9,22,46.1,11.7,40.8,1.1c-0.6,0-2.5,0-3.1,0c3.1,9.6-4.3,18.8-3.3,28.4
		c0.1,1.2,0.2,2,0.2,2.5c-0.1,0.3-0.2,0.5-0.6,0.6c-0.1,0-0.1,0.1-0.2,0.1c0,0.1,0,0.5,0.1,0.6c0,0.1,0.1,0.2,0.2,0.2
		c0.1,0.1,0.1,0.1,0.2,0.1c1,0,3,0,4,0c0.1,0,0.1,0,0.1-0.1c0-0.1,0-0.1,0-0.2c0-0.1-0.1-0.5-0.2-0.6c-0.1,0-0.2-0.1-0.3-0.1
		c-0.4-0.1-0.8-0.3-1.1-0.6c-0.3-0.3-0.5-0.6-0.7-1.3c-0.1-0.2-0.1-0.5-0.1-0.7c-0.2-1.2-0.3-1.7-0.3-2.8c1.1,0,2.5,0,3.6,0
		c0.3,2.1,0.5,3.4,1.6,5.5c-0.3,0-0.5,0-0.8,0c-0.1,0-0.1,0-0.1,0.1c0,0,0.2,0.4,0.3,0.5c0,0.1,0.1,0.1,0.1,0.2
		c0.1,0,0.1,0.1,0.2,0.1c1.8,0,4-0.1,5.8-0.1c0.1-0.1,0.1-0.2,0.1-0.3C46.4,33.1,46.3,32.6,46.1,32.5z M39.1,25.9c-1,0-2.4,0-3.4,0
		c0.4-5.7,3.4-10.9,3.8-16.7C39.8,14.9,38.5,20.3,39.1,25.9z"/>
	<path fill="#010101" d="M61.9,10.7c-0.1-0.7-0.2-1.5-0.2-2.2C61.5,7.2,61.3,6,60.9,5c-0.3-0.7-0.6-1.5-1.2-2.2
		c-0.6-0.7-1.2-1.3-1.9-1.6c-0.9-0.4-2.7-0.7-3.5-0.6c-1.7,0.1-4,0.1-5.7,0.1c-0.1,0-0.1,0-0.1,0.1c0,0,0,0.1,0,0.2
		c0,0.1,0.1,0.7,0.1,0.8c0.1,0,0.1,0.1,0.2,0.1c0.4,0,0.7,0,1.1,0c4.6,10.3-2.2,20.1,2.4,30.4c-0.4,0-0.8,0-1.2,0.1
		c-0.1,0-0.1,0-0.1,0.1c0,0,0,0.1,0,0.2c0,0.1,0.4,0.4,0.4,0.5c0.1,0,0.1,0.1,0.2,0.1c2.1-0.1,4.5-0.2,6.6-0.4c0.1,0,0.1,0,0.1-0.1
		c0,0,0-0.1,0-0.2c0-0.1-0.1-0.5-0.2-0.5c-0.1,0-0.1-0.1-0.2-0.1c-0.4,0-0.8,0.1-1.2,0.1c-2.3-4.3-2.2-8.5-1.8-13c0.2,0,1.6,0,1.9,0
		c1,0,2-0.4,2.9-1.2c0.9-0.7,1.5-1.7,1.9-2.9C62,13.7,62,12.3,61.9,10.7z M57.9,16c0,0.6-0.2,1.1-0.5,1.5c-0.3,0.4-0.7,0.6-1.2,0.6
		c-0.2,0-0.8,0-1,0c0.6-5.8,1.6-10.5-1.2-16.2c0.3,0,1.1,0,1.4,0c0.4,0.1,0.6,0.2,0.9,0.4c0.4,0.4,0.8,0.9,1.1,1.6
		C58.5,8.3,58.2,11.6,57.9,16z"/>
</g>
</svg>
