<?xml version="1.0" encoding="utf-8"?>
<!-- Generator: Adobe Illustrator 17.1.0, SVG Export Plug-In . SVG Version: 6.00 Build 0)  -->
<!DOCTYPE svg PUBLIC "-//W3C//DTD SVG 1.1//EN" "http://www.w3.org/Graphics/SVG/1.1/DTD/svg11.dtd">
<svg version="1.1" id="Layer_1" xmlns="http://www.w3.org/2000/svg" xmlns:xlink="http://www.w3.org/1999/xlink" x="0px" y="0px"
	 viewBox="0 0 20 20" enable-background="new 0 0 20 20" xml:space="preserve">
<g>
	<g>
		<path fill="#010101" d="M7.7,2.1L7.7,2.1c1.5,0,2.9,0.6,4,1.7c1.1,1.1,1.7,2.5,1.7,4s-0.6,2.9-1.7,4c-1.1,1.1-2.5,1.7-4,1.7
			c-1.5,0-2.9-0.6-4-1.7c-2.2-2.2-2.2-5.8,0-8C4.8,2.6,6.2,2.1,7.7,2.1 M7.7,0c-2,0-3.9,0.8-5.5,2.3c-3,3-3,7.9,0,10.9
			c1.5,1.5,3.5,2.3,5.5,2.3c2,0,3.9-0.8,5.4-2.3c3-3,3-7.9,0-10.9C11.7,0.8,9.7,0,7.7,0L7.7,0z"/>
	</g>
	<g>
		<path fill="#010101" d="M19,20c-0.3,0-0.5-0.1-0.7-0.3l-5.8-5.8c-0.4-0.4-0.4-1.1,0-1.5c0.4-0.4,1.1-0.4,1.5,0l5.8,5.8
			c0.4,0.4,0.4,1.1,0,1.5C19.5,19.9,19.2,20,19,20z"/>
	</g>
</g>
</svg>
