<?xml version="1.0" encoding="utf-8"?>
<!-- Generator: Adobe Illustrator 17.1.0, SVG Export Plug-In . SVG Version: 6.00 Build 0)  -->
<!DOCTYPE svg PUBLIC "-//W3C//DTD SVG 1.1//EN" "http://www.w3.org/Graphics/SVG/1.1/DTD/svg11.dtd">
<svg version="1.1" id="Layer_1" xmlns="http://www.w3.org/2000/svg" xmlns:xlink="http://www.w3.org/1999/xlink" x="0px" y="0px"
	 viewBox="0 0 400.3 145.8" enable-background="new 0 0 400.3 145.8" xml:space="preserve">
<g>
	<g>
		<g>
			<path fill="#010101" d="M237,29.7c-11.5-4.8-23.8-7.3-35.8-7.6V22c0,0-0.6,0-1,0c-0.4,0-1,0-1,0v0.1c-12,0.3-24.4,2.8-35.9,7.6
				c0,0,4.6,11.2,5.1,11c10.3-4.1,21-6.2,31.8-6.3c10.9,0.2,21.6,2.3,32,6.4C232.5,40.9,237,29.7,237,29.7z"/>
		</g>
		<path fill="#010101" d="M386.3,53.6c0.3-3.6,0.4-3.9,0.4-3.9c0.4-4,1.3-8.8,3.2-10.9c2.3-2.7,8.5-3.4,8.5-3.4
			c1.8-0.5,1.8-2.8,1.8-2.8c0.2-12.3-0.1-22.4-0.1-22.4c-0.2-1.2-1.3-1.4-1.3-1.4s-12.5-2.2-29.6-4.5c0,0-21.3-2.8-44.3-4.2
			c0,0-28.3-1.2-54,2.9c0,0-13.5,2.2-28.2,7.3c-8.3,2.9-13.7,5.7-18.6,8.5c-2.5,1.4-4.1,2.5-5.3,5.5c0,0-1.8,5.5-0.4,12.2
			c0.8,3.7,2.2,6.5,3.9,8.7c2.1,2.7,5.2,3.7,7,3.9c0.5-2.8,1.1-5.5,1.8-7.9c1.8-5.6,4.9-10.4,9.3-14.4c4.4-4,9.9-6.8,15.5-9
			c11.1-4.4,23.4-6,35.2-6.8c11.9-0.8,24-0.8,35.9,0.8c6.1,0.8,12.2,1.8,18.1,3.4c5.6,1.5,11.2,3.4,16.2,6.4c5,3.1,9.1,7.8,11,13.3
			c1.9,5.4,2.8,11.2,3.2,16.9c0,0.6,0.1,1.2,0.1,1.8C375.8,53.6,385.2,63.9,386.3,53.6z"/>
		<g>
			<path fill="#010101" d="M24.5,53.6c0-0.6,0.1-1.2,0.1-1.8c0.4-5.7,1.3-11.5,3.2-16.9c1.9-5.5,6-10.2,11-13.3
				c5-3,10.6-4.9,16.2-6.4c5.9-1.6,12-2.6,18.1-3.4c11.8-1.5,24-1.5,35.9-0.8c11.9,0.8,24.1,2.4,35.2,6.8c5.6,2.2,11,5,15.5,9
				c4.4,4,7.5,8.8,9.3,14.4c0.8,2.4,1.4,5.1,1.8,7.9c1.9-0.2,4.9-1.2,7-3.9c1.7-2.2,3.1-4.9,3.9-8.7c1.4-6.7-0.4-12.2-0.4-12.2
				c-1.1-2.9-2.8-4.1-5.3-5.5c-4.9-2.8-10.2-5.6-18.6-8.5c-14.7-5.2-28.2-7.3-28.2-7.3c-25.7-4.1-54-2.9-54-2.9
				C52.4,1.6,31.1,4.4,31.1,4.4C13.9,6.6,1.5,8.9,1.5,8.9s-1.2,0.2-1.3,1.4c0,0-0.3,10.2-0.1,22.4c0,0-0.1,2.3,1.8,2.8
				c0,0,6.2,0.7,8.5,3.4c1.8,2.1,2.8,6.9,3.2,10.9c0,0,0.1,0.3,0.4,3.9C15,63.9,24.5,53.6,24.5,53.6z"/>
		</g>
		<g>
			<path fill="#010101" d="M94.1,15.5c3.7,0,7.5,0.1,11.4,0.3c16.3,0.8,33.2,2.8,46.6,11.3c5.9,3.8,10.2,9,12.2,15.1
				c2.3,6.9,3,14.9,2.1,23.3c-1.9,16.4-7.2,31.1-15.3,42.3c-8.4,11.7-19.9,20-32.2,23.1c-7.1,1.8-15.1,2.8-23.6,2.8h-0.1
				c-8.5,0-16.6-1.2-23.9-3.5c-12.3-3.9-23.4-13-30.4-25c-4-6.8-7.1-15.4-9.2-25.4c-2.1-9.9-2.8-19.2-2.1-27.8l0,0
				c0-0.1,0-0.3,0-0.5c0-0.5,0.1-1.2,0.1-1.6l0,0l0-0.3c0.6-6.2,1.7-13.2,5.6-18.4c4.4-5.8,11.7-8.6,17.7-10.4
				C65.1,17.3,78.5,15.5,94.1,15.5 M94.1,7.5c-16.4,0-30.5,1.9-43.4,5.7c-7.1,2.1-16,5.6-21.8,13.2c-4.8,6.4-6.4,14.5-7.1,22.4
				c0,0.2-0.2,2.5-0.2,2.5c-0.7,9.4,0,19.5,2.3,30.1c2.3,10.9,5.7,20.2,10.1,27.8c8,13.7,20.7,24.1,34.9,28.6
				c8.1,2.5,16.9,3.8,26.3,3.8h0.1c9.2,0,17.8-1,25.6-3c14.1-3.6,27.1-12.9,36.7-26.2c8.9-12.3,14.6-28.2,16.7-46
				c1.1-9.5,0.3-18.7-2.4-26.8c-2.6-7.8-8-14.5-15.5-19.3c-15-9.6-33.1-11.7-50.5-12.6C101.8,7.6,97.9,7.5,94.1,7.5L94.1,7.5z"/>
		</g>
		<g>
			<path fill="#010101" d="M306.2,15.6c15.6,0,29,1.8,41.1,5.4c5.9,1.8,13.3,4.6,17.7,10.4c3.9,5.1,5,12.2,5.6,18.4l0,0.3l0,0
				c0,0.4,0.1,1.1,0.1,1.6c0,0.2,0,0.4,0,0.5l0,0c0.7,8.6-0.1,18-2.1,27.8c-2.1,10-5.2,18.6-9.2,25.4c-7,12-18.1,21.1-30.4,25
				c-7.3,2.3-15.3,3.5-23.9,3.5H305c-8.5,0-16.5-0.9-23.6-2.8c-12.3-3.1-23.7-11.3-32.2-23.1c-8.1-11.2-13.3-25.9-15.3-42.3
				c-1-8.3-0.3-16.4,2.1-23.3c2.1-6.1,6.3-11.3,12.2-15.1c13.4-8.6,30.3-10.5,46.6-11.3C298.7,15.7,302.6,15.6,306.2,15.6
				 M306.2,7.6c-3.8,0-7.8,0.1-11.8,0.3c-17.4,0.9-35.5,3-50.5,12.6c-7.5,4.8-12.9,11.5-15.5,19.3c-2.7,8-3.5,17.3-2.4,26.8
				c2.1,17.8,7.9,33.7,16.7,46c9.5,13.3,22.6,22.6,36.7,26.2c7.8,2,16.4,3,25.6,3h0.1c9.4,0,18.2-1.3,26.3-3.8
				c14.2-4.5,26.9-14.9,34.9-28.6c4.4-7.6,7.8-16.9,10.1-27.8c2.3-10.6,3-20.7,2.3-30.1c0,0-0.2-2.3-0.2-2.5c-0.7-8-2.3-16-7.1-22.4
				c-5.8-7.7-14.7-11.1-21.8-13.2C336.8,9.5,322.6,7.6,306.2,7.6L306.2,7.6z"/>
		</g>
	</g>
	<g>
		<g>
			<ellipse fill-rule="evenodd" clip-rule="evenodd" cx="117" cy="56.9" rx="9.8" ry="16.8"/>
			<path fill-rule="evenodd" clip-rule="evenodd" d="M95.9,115.1c-2-0.2-4-0.3-6-0.6c-12.4-1.9-23.3-6.8-31.6-16.4
				c-2.8-3.2-4.5-7.3-6.7-11c-0.3-0.6-0.6-1.2-1.1-2c-0.6,0.7-1.1,1.3-1.5,1.9c-0.5,0.7-1.1,1.1-2,0.8c-0.9-0.3-0.8-1.2-0.6-1.9
				c0.2-0.8,0.5-1.6,1-2.2c2.3-3,5.2-4.9,9.1-4.9c0.8,0,1.7,0,1.8,1.2c0.1,1-0.4,1.8-1.6,2c-1,0.2-1.9,0.5-3.1,0.8
				c0.5,1,0.9,1.7,1.2,2.5c2.2,4.2,5,8,8.1,11.6c2.6,3,5.9,5.2,9.4,7.2c8.9,5,18.5,7.3,28.7,6.5c12.4-0.9,23.2-5.5,31.8-14.9
				c3.3-3.6,5.7-7.8,7.3-12.7c-0.8-0.3-1.6-0.5-2.5-0.7c-1.2-0.3-1.9-1.1-1.7-2.1c0.2-1.2,1.2-1.1,2.1-1c3.8,0.3,6.4,2.4,8.6,5.3
				c0.4,0.5,0.8,1.1,1.1,1.7c0.4,0.7,0.3,1.5-0.4,1.8c-0.4,0.2-1.3,0-1.7-0.4c-0.9-0.8-1.6-1.8-2.6-2.8c-0.3,0.6-0.5,1-0.6,1.4
				c-4.6,12.5-13.6,20.5-25.8,25.2c-5.1,2-10.4,3.3-15.9,3.6c-0.2,0-0.5,0.1-0.7,0.2C98.6,115.1,97.2,115.1,95.9,115.1z"/>
			<ellipse fill-rule="evenodd" clip-rule="evenodd" cx="77.5" cy="56.9" rx="9.8" ry="16.8"/>
		</g>
		<g>
			<ellipse fill-rule="evenodd" clip-rule="evenodd" cx="323.3" cy="56.9" rx="9.8" ry="16.8"/>
			<path fill-rule="evenodd" clip-rule="evenodd" d="M302.1,115.1c-2-0.2-4-0.3-6-0.6c-12.4-1.9-23.3-6.8-31.6-16.4
				c-2.8-3.2-4.5-7.3-6.7-11c-0.3-0.6-0.6-1.2-1.1-2c-0.6,0.7-1.1,1.3-1.5,1.9c-0.5,0.7-1.1,1.1-2,0.8c-0.9-0.3-0.8-1.2-0.6-1.9
				c0.2-0.8,0.5-1.6,1-2.2c2.3-3,5.2-4.9,9.1-4.9c0.8,0,1.7,0,1.8,1.2c0.1,1-0.4,1.8-1.6,2c-1,0.2-1.9,0.5-3.1,0.8
				c0.5,1,0.9,1.7,1.2,2.5c2.2,4.2,5,8,8.1,11.6c2.6,3,5.9,5.2,9.4,7.2c8.9,5,18.5,7.3,28.7,6.5c12.4-0.9,23.2-5.5,31.8-14.9
				c3.3-3.6,5.7-7.8,7.3-12.7c-0.8-0.3-1.6-0.5-2.5-0.7c-1.2-0.3-1.9-1.1-1.7-2.1c0.2-1.2,1.2-1.1,2.1-1c3.8,0.3,6.5,2.4,8.6,5.3
				c0.4,0.5,0.8,1.1,1.1,1.7c0.4,0.7,0.3,1.5-0.4,1.8c-0.4,0.2-1.3,0-1.7-0.4c-0.9-0.8-1.6-1.8-2.6-2.8c-0.3,0.6-0.5,1-0.6,1.4
				c-4.6,12.5-13.6,20.5-25.8,25.2c-5.1,2-10.4,3.3-15.9,3.6c-0.2,0-0.5,0.1-0.7,0.2C304.8,115.1,303.5,115.1,302.1,115.1z"/>
			<ellipse fill-rule="evenodd" clip-rule="evenodd" cx="283.7" cy="56.9" rx="9.8" ry="16.8"/>
		</g>
	</g>
</g>
</svg>
