<svg xmlns="http://www.w3.org/2000/svg" viewBox="0 0 391.18 130.09"><defs><style>.cls-1{fill-rule:evenodd;}</style></defs><title>Asset 14wayfarer_active</title><g id="Layer_2" data-name="Layer 2"><g id="Layer_1-2" data-name="Layer 1"><path d="M387.2,8.58c-5.75-3.42-18.55-4.94-18.55-4.94C345.32.75,320.17,0,320.17,0S285.07-.42,260,5.56a352.26,352.26,0,0,0-35.34,9.91c-2.79.93-11.56,4.42-17.47,4.93a67.31,67.31,0,0,1-8.08.41h-7A67.31,67.31,0,0,1,184,20.4c-5.9-.51-14.68-4-17.47-4.9a354.53,354.53,0,0,0-35.34-9.92C106.11-.4,71,0,71,0S45.86.76,22.53,3.64c0,0-12.8,1.52-18.55,4.95,0,0-4.54,2-3.92,11.83,0,0,1.58,15.52,5.21,27.3,2,6.34,5.38,10.3,8.4,16.5,0,0,9.55,20.19,14,30.67,2.95,6.89,11.74,23.3,18.35,26.73,0,0,5.8,3.34,17.87,5.63,0,0,9.79,2.93,35.81,2.84a174.38,174.38,0,0,0,40.65-5.32s11-2.71,22.69-22.31a152.08,152.08,0,0,0,10.45-23.09s5.6-17,11.37-22.29a16.14,16.14,0,0,1,6.53-3.32,18.18,18.18,0,0,1,8.32,0,13.71,13.71,0,0,1,6.07,3.06c5.85,4.72,11.83,22.55,11.83,22.55a152.08,152.08,0,0,0,10.45,23.09c11.67,19.6,23.7,22.31,23.7,22.31a168.78,168.78,0,0,0,39.65,5.32c26,.09,35.8-2.84,35.8-2.84,12.08-2.29,17.87-5.63,17.87-5.63,6.61-3.43,15.4-19.84,18.35-26.73,4.49-10.48,14-30.67,14-30.67,3-6.2,6.44-10.16,8.4-16.5,3.64-11.78,5.21-27.3,5.21-27.3C391.74,10.61,387.2,8.58,387.2,8.58ZM166.09,59.2c-2.16,26.94-13.27,42.64-13.27,42.64-6.06,12.09-21.6,15.1-21.6,15.1-10.79,2.59-28.52,3.57-28.52,3.57-27.92.13-40.48-4.52-40.48-4.52-9.3-3.43-15.83-13.3-15.83-13.3-13.55-22.68-17-50.91-17-50.91C25.83,30.24,39.54,24.36,39.54,24.36c11.82-5.24,33.51-6.14,33.51-6.14a264.55,264.55,0,0,1,32.27.79c19.59,1.62,30,4.51,30,4.51C156.7,28.93,161.24,37,161.24,37,166.65,45.54,166.09,59.2,166.09,59.2Zm195.67-7.43s-3.42,28.23-17,50.92c0,0-6.52,9.87-15.83,13.3,0,0-12.56,4.65-40.48,4.52,0,0-17.73-1-28.52-3.57,0,0-15.54-3-21.59-15.11,0,0-11.12-15.69-13.27-42.63,0,0-.56-13.66,4.85-22.17,0,0,4.53-8.1,25.89-13.51,0,0,10.44-2.89,30-4.52a265.63,265.63,0,0,1,32.27-.78s21.68.9,33.51,6.14C351.65,24.36,365.35,30.23,361.76,51.77Z"/><path class="cls-1" d="M123.94,55.28c0-7.43-3.5-13.47-7.82-13.47s-7.81,6-7.81,13.47,3.5,13.48,7.81,13.48S123.94,62.73,123.94,55.28Z"/><path class="cls-1" d="M99.19,101.81c-1.62-.14-3.24-.21-4.84-.45C84.42,99.87,75.68,95.89,69,88.26c-2.23-2.55-3.62-5.83-5.39-8.78-.28-.46-.51-.94-.88-1.63-.47.58-.88,1-1.21,1.5A1.25,1.25,0,0,1,60,80c-.74-.28-.62-1-.47-1.49a5.28,5.28,0,0,1,.83-1.76,8.88,8.88,0,0,1,7.27-3.93c.67,0,1.36,0,1.48.93a1.41,1.41,0,0,1-1.28,1.63c-.78.18-1.55.39-2.49.63.39.79.68,1.4,1,2a47.19,47.19,0,0,0,6.5,9.3A27.26,27.26,0,0,0,80.32,93a40.57,40.57,0,0,0,23,5.23c10-.74,18.62-4.44,25.44-11.91a27.13,27.13,0,0,0,5.84-10.16c-.68-.21-1.32-.42-2-.59-1-.24-1.52-.91-1.36-1.68.19-1,1-.89,1.66-.84,3,.22,5.17,1.89,6.88,4.24a10.88,10.88,0,0,1,.85,1.38,1,1,0,0,1-.34,1.41,1.59,1.59,0,0,1-1.32-.28,26.22,26.22,0,0,1-2.05-2.26,11.43,11.43,0,0,0-.51,1.09c-3.7,10-10.93,16.38-20.68,20.17A41.05,41.05,0,0,1,103,101.69a3.86,3.86,0,0,0-.57.12Z"/><path class="cls-1" d="M92.29,55.28c0-7.43-3.5-13.47-7.82-13.47s-7.81,6-7.81,13.47,3.49,13.48,7.81,13.48S92.29,62.73,92.29,55.28Z"/><path class="cls-1" d="M314.94,55.28c0-7.43-3.5-13.47-7.82-13.47s-7.81,6-7.81,13.47,3.5,13.48,7.81,13.48S314.94,62.73,314.94,55.28Z"/><path class="cls-1" d="M290.19,101.81c-1.62-.14-3.24-.21-4.84-.45-9.93-1.49-18.67-5.47-25.34-13.1-2.23-2.55-3.62-5.83-5.39-8.78-.28-.46-.51-.94-.88-1.63-.47.58-.88,1-1.21,1.5A1.25,1.25,0,0,1,251,80c-.74-.28-.62-1-.47-1.49a5.28,5.28,0,0,1,.83-1.76,8.88,8.88,0,0,1,7.27-3.93c.67,0,1.36,0,1.48.93a1.41,1.41,0,0,1-1.28,1.63c-.78.18-1.55.39-2.49.63.39.79.68,1.4,1,2a47.19,47.19,0,0,0,6.5,9.3A27.26,27.26,0,0,0,271.32,93a40.57,40.57,0,0,0,23,5.23c10-.74,18.62-4.44,25.44-11.91a27.13,27.13,0,0,0,5.84-10.16c-.68-.21-1.32-.42-2-.59-.95-.24-1.52-.91-1.36-1.68.19-1,1-.89,1.66-.84,3,.22,5.17,1.89,6.88,4.24a10.88,10.88,0,0,1,.85,1.38,1,1,0,0,1-.34,1.41,1.59,1.59,0,0,1-1.32-.28,26.22,26.22,0,0,1-2.05-2.26,11.43,11.43,0,0,0-.51,1.09c-3.7,10-10.93,16.38-20.68,20.17A41.05,41.05,0,0,1,294,101.69a3.86,3.86,0,0,0-.57.12Z"/><path class="cls-1" d="M283.29,55.28c0-7.43-3.5-13.47-7.82-13.47s-7.81,6-7.81,13.47,3.49,13.48,7.81,13.48S283.29,62.73,283.29,55.28Z"/></g></g></svg>