<?xml version="1.0" encoding="utf-8"?>
<!-- Generator: Adobe Illustrator 17.1.0, SVG Export Plug-In . SVG Version: 6.00 Build 0)  -->
<!DOCTYPE svg PUBLIC "-//W3C//DTD SVG 1.1//EN" "http://www.w3.org/Graphics/SVG/1.1/DTD/svg11.dtd">
<svg version="1.1" id="Layer_1" xmlns="http://www.w3.org/2000/svg" xmlns:xlink="http://www.w3.org/1999/xlink" x="0px" y="0px"
	 viewBox="0 0 419.5 142.7" enable-background="new 0 0 419.5 142.7" xml:space="preserve">
<g>
	<path fill="#010101" d="M209.7,46.2c-3,0-7.7-0.7-11.9-2.4c-6.3-2.5-10-5.5-21.3-13.4c-18.8-13.1-38.8-22.7-61.9-26.8
		C91-0.6,77.7-0.8,48.5,1.2c-8.8,0.6-18.2,1.9-31.3,6C1.5,12.1-0.9,20.4,0.2,30.8c0.6,5.8,7.6,26.1,15.1,41.4
		C24.1,90,33.1,103,46.7,116c10.1,9.6,23.2,18.2,42.9,23.9c7.8,2.3,22.9,5,44.4,0c24.8-5.7,40.4-24.2,40.4-24.2s5.2-6.1,13.4-18.6
		c0,0,3.2-5.3,6.2-10.6c0,0,4-7.5,7.1-10c0,0,3.6-3,8.6-3h0.2c5,0,8.6,3,8.6,3c3.1,2.5,7.1,10,7.1,10c3,5.3,6.2,10.6,6.2,10.6
		c8.2,12.5,13.4,18.6,13.4,18.6s15.6,18.5,40.4,24.2c21.6,5,36.6,2.3,44.4,0c19.7-5.7,32.8-14.3,42.9-23.9
		c13.6-12.9,22.6-26,31.3-43.8c7.5-15.3,14.5-35.6,15.1-41.4c1.1-10.3-1.3-18.7-17-23.6c-13.1-4.1-22.5-5.4-31.3-6
		c-29.2-2-42.5-1.8-66.1,2.4c-23,4.1-43,13.7-61.9,26.8c-11.3,7.9-15.1,10.9-21.3,13.4c-4.2,1.7-8.8,2.4-11.9,2.4H209.7z
		 M379.3,65.3c0,0-1,14-8.4,28.9c0,0-7.1,14.6-22.5,26.6c0,0-17.8,13.7-41.1,13.7c0,0-12.6,0.1-26-4.8c0,0-13.1-4.9-23.4-16.2
		c0,0-18.2-19.8-18.1-41.6c0,0-1.6-17.8,18.3-31.5c0,0,22.9-17.4,56.6-17.3c0,0,12-0.2,22.9,1.3c0,0,11.6,1.5,19.7,5.1
		C378.9,39,380.4,51.2,379.3,65.3z M62.2,29.6c8.2-3.5,19.7-5.1,19.7-5.1c11-1.5,22.9-1.3,22.9-1.3c33.7-0.1,56.6,17.3,56.6,17.3
		C181.4,54.2,179.8,72,179.8,72c0,21.8-18.1,41.6-18.1,41.6c-10.3,11.3-23.4,16.2-23.4,16.2c-13.4,4.9-26,4.8-26,4.8
		c-23.3,0-41.1-13.7-41.1-13.7c-15.4-12-22.5-26.6-22.5-26.6c-7.4-14.9-8.4-28.9-8.4-28.9C39.1,51.2,40.7,39,62.2,29.6z"/>
</g>
</svg>
