<svg xmlns="http://www.w3.org/2000/svg" viewBox="0 0 408.37 139.86"><defs><style>.cls-1{fill-rule:evenodd;}</style></defs><title>Asset 6oval_hover</title><g id="Layer_2" data-name="Layer 2"><g id="Layer_1-2" data-name="Layer 1"><path d="M381.38,13.37C356.05-.47,321.17-1.78,297.8,1.5c-16.61,2.34-36.55,8.34-59.37,25-6.66,4.86-12.5,9-18.8,11.16a50,50,0,0,1-15.35,3h-.19a50,50,0,0,1-15.35-3c-6.3-2.2-12.14-6.3-18.8-11.16-22.82-16.64-42.76-22.64-59.37-25C87.2-1.78,52.32-.47,27,13.37c-40,21.89-30.72,74.32-3.31,98.56A120.44,120.44,0,0,0,65.2,135.46c16.08,5.15,45.48,6.12,64.38,1.11,24.21-6.41,39.82-25.21,39.82-25.21a192.9,192.9,0,0,0,13.16-18.42s3.17-5.27,6.14-10.49c0,0,3.94-7.46,6.94-9.9a14.34,14.34,0,0,1,8.46-2.93h.18a14.32,14.32,0,0,1,8.45,2.93c3,2.44,6.94,9.9,6.94,9.9,3,5.22,6.14,10.49,6.14,10.49A194.64,194.64,0,0,0,239,111.36s15.61,18.8,39.82,25.21c18.9,5,48.3,4,64.38-1.11a120.44,120.44,0,0,0,41.51-23.53C412.08,87.69,421.42,35.26,381.38,13.37ZM168.25,93.24a55.41,55.41,0,0,1-16.2,22.09,64.47,64.47,0,0,1-12.18,7.89,75.67,75.67,0,0,1-17.18,5.63,80.72,80.72,0,0,1-35.77-.06c-7.82-1.8-15.79-4.51-22.51-8.86-8.82-5.7-16.93-13.38-22.21-22.37-3.09-5.27-12.93-24.72-7.38-41.67,7.83-23.9,36.91-31,59.42-32.6a98,98,0,0,1,41.39,5.91,80.18,80.18,0,0,1,20,10.45c7.55,5.66,13.9,13.68,16.15,22.79C174.32,72.74,172.35,83.57,168.25,93.24Zm197.92,4.32c-5.28,9-13.39,16.67-22.21,22.37-6.73,4.35-14.69,7.06-22.51,8.86a80.72,80.72,0,0,1-35.77.06,75.67,75.67,0,0,1-17.18-5.63,64.47,64.47,0,0,1-12.18-7.89,55.41,55.41,0,0,1-16.2-22.09c-4.1-9.67-6.07-20.5-3.52-30.8,2.26-9.11,8.6-17.13,16.15-22.79a80.18,80.18,0,0,1,20-10.45,97.94,97.94,0,0,1,41.39-5.91c22.51,1.6,51.59,8.7,59.42,32.6C379.1,72.84,369.26,92.29,366.17,97.56Z"/><path class="cls-1" d="M128,64.06c0-7.44-3.5-13.47-7.81-13.47s-7.82,6-7.82,13.47,3.5,13.47,7.82,13.47S128,71.5,128,64.06Z"/><path class="cls-1" d="M103.28,110.59c-1.61-.15-3.24-.21-4.84-.45-9.93-1.49-18.66-5.48-25.33-13.11-2.23-2.55-3.63-5.82-5.4-8.77-.27-.46-.51-1-.88-1.63-.47.58-.87,1-1.2,1.5a1.26,1.26,0,0,1-1.58.62c-.75-.28-.62-1-.47-1.49a5.23,5.23,0,0,1,.83-1.77,8.91,8.91,0,0,1,7.26-3.93c.67,0,1.36,0,1.48.94a1.41,1.41,0,0,1-1.27,1.63c-.78.18-1.55.39-2.5.63.39.79.69,1.4,1,2a47,47,0,0,0,6.5,9.31,27.23,27.23,0,0,0,7.53,5.74,40.42,40.42,0,0,0,23,5.23c10-.74,18.61-4.44,25.43-11.9A27,27,0,0,0,138.68,85c-.68-.2-1.31-.41-2-.58-.95-.24-1.52-.91-1.37-1.69.2-1,1-.88,1.67-.83,3,.21,5.16,1.88,6.87,4.23a10,10,0,0,1,.85,1.39.94.94,0,0,1-.33,1.4,1.54,1.54,0,0,1-1.33-.28A26.37,26.37,0,0,1,141,86.35c-.23.5-.39.79-.51,1.1-3.7,10-10.92,16.37-20.67,20.16a40.83,40.83,0,0,1-12.75,2.85,3.5,3.5,0,0,0-.56.13Z"/><path class="cls-1" d="M96.38,64.06c0-7.44-3.5-13.47-7.81-13.47s-7.82,6-7.82,13.47,3.5,13.47,7.82,13.47S96.38,71.5,96.38,64.06Z"/><path class="cls-1" d="M328,64.06c0-7.44-3.5-13.47-7.81-13.47s-7.82,6-7.82,13.47,3.5,13.47,7.82,13.47S328,71.5,328,64.06Z"/><path class="cls-1" d="M303.28,110.59c-1.61-.15-3.24-.21-4.84-.45-9.93-1.49-18.66-5.48-25.33-13.11-2.23-2.55-3.63-5.82-5.4-8.77-.27-.46-.51-1-.88-1.63-.47.58-.87,1-1.2,1.5a1.26,1.26,0,0,1-1.58.62c-.75-.28-.62-1-.47-1.49a5.23,5.23,0,0,1,.83-1.77,8.91,8.91,0,0,1,7.26-3.93c.67,0,1.36,0,1.48.94a1.41,1.41,0,0,1-1.27,1.63c-.78.18-1.55.39-2.5.63.39.79.69,1.4,1,2a47,47,0,0,0,6.5,9.31,27.23,27.23,0,0,0,7.53,5.74,40.42,40.42,0,0,0,23,5.23c9.95-.74,18.61-4.44,25.43-11.9A27,27,0,0,0,338.68,85c-.68-.2-1.31-.41-2-.58-1-.24-1.52-.91-1.37-1.69.2-1,1-.88,1.67-.83,3,.21,5.16,1.88,6.87,4.23a10,10,0,0,1,.85,1.39.94.94,0,0,1-.33,1.4,1.54,1.54,0,0,1-1.33-.28A26.37,26.37,0,0,1,341,86.35c-.23.5-.39.79-.51,1.1-3.7,10-10.92,16.37-20.67,20.16a40.83,40.83,0,0,1-12.75,2.85,3.5,3.5,0,0,0-.56.13Z"/><path class="cls-1" d="M296.38,64.06c0-7.44-3.5-13.47-7.81-13.47s-7.82,6-7.82,13.47,3.5,13.47,7.82,13.47S296.38,71.5,296.38,64.06Z"/></g></g></svg>