<svg xmlns="http://www.w3.org/2000/svg" viewBox="0 0 399.69 104.88"><title>Asset 1square</title><g id="Layer_2" data-name="Layer 2"><g id="Layer_1-2" data-name="Layer 1"><path d="M378.31,3.19c-45-4.3-92.76-3.9-126.76-.88-20.65,1.83-28.88,9.58-33.68,12.93-5.23,3.64-10.39,7.41-17.53,7.41h-1c-7.13,0-12.3-3.77-17.53-7.41-4.8-3.35-13-11.1-33.67-12.93-34-3-81.77-3.42-126.77.88C6.68,4.59,0,11.46,0,19.72,0,33.79.48,59.93,2.68,65.09c6.39,15,24.9,27.81,33.37,32.17,6.14,3.15,14.94,4.78,27,5.95a389.29,389.29,0,0,0,57,1.11c18.16-1,26.65-3.92,34.32-8.15,5-2.75,14.52-12.06,18.6-18.2,4.3-6.45,9.61-15.25,13.14-19.71a17.1,17.1,0,0,1,13.33-6.42h.75a17.08,17.08,0,0,1,13.32,6.42c3.54,4.46,8.85,13.26,13.14,19.71,4.09,6.14,13.63,15.45,18.61,18.2,7.66,4.23,16.16,7.18,34.31,8.15a389.43,389.43,0,0,0,57-1.11c12.05-1.17,20.85-2.8,27-5.95,8.47-4.36,27-17.13,33.38-32.17,2.19-5.16,2.68-31.3,2.68-45.37C399.69,11.46,393,4.59,378.31,3.19ZM147.45,89c-10.8,6.14-30.28,7-48.26,7-22,.08-50.1-1-61.84-11.86C32.5,79.71,28.74,67,26.7,53.49c-2-13.26-3.18-24.36,11.24-31.23,15.79-7.51,103.12-7.49,120.53.5C169.8,28,171.69,35.14,172.76,41.91,174.13,50.56,166.24,78.32,147.45,89ZM373,53.49c-2.05,13.5-5.8,26.22-10.65,30.71-11.74,10.86-39.8,11.94-61.85,11.86-18-.06-37.45-.9-48.26-7-18.78-10.7-26.68-38.46-25.31-47.11,1.08-6.77,3-13.95,14.29-19.15,17.41-8,104.75-8,120.54-.5C376.16,29.13,375,40.23,373,53.49Z"/></g></g></svg>