<svg xmlns="http://www.w3.org/2000/svg" viewBox="0 0 408.37 139.86"><title>Asset 5oval</title><g id="Layer_2" data-name="Layer 2"><g id="Layer_1-2" data-name="Layer 1"><path d="M381.38,13.37C356.05-.47,321.17-1.78,297.8,1.5c-16.61,2.34-36.55,8.34-59.37,25-6.66,4.86-12.5,9-18.8,11.16a50,50,0,0,1-15.35,3h-.19a50,50,0,0,1-15.35-3c-6.3-2.2-12.14-6.3-18.8-11.16-22.82-16.64-42.76-22.64-59.37-25C87.2-1.78,52.32-.47,27,13.37c-40,21.89-30.72,74.32-3.31,98.56A120.44,120.44,0,0,0,65.2,135.46c16.08,5.15,45.48,6.12,64.38,1.11,24.21-6.41,39.82-25.21,39.82-25.21a192.9,192.9,0,0,0,13.16-18.42s3.17-5.27,6.14-10.49c0,0,3.94-7.46,6.94-9.9a14.34,14.34,0,0,1,8.46-2.93h.18a14.32,14.32,0,0,1,8.45,2.93c3,2.44,6.94,9.9,6.94,9.9,3,5.22,6.14,10.49,6.14,10.49A194.64,194.64,0,0,0,239,111.36s15.61,18.8,39.82,25.21c18.9,5,48.3,4,64.38-1.11a120.44,120.44,0,0,0,41.51-23.53C412.08,87.69,421.42,35.26,381.38,13.37ZM168.25,93.24a55.41,55.41,0,0,1-16.2,22.09,64.47,64.47,0,0,1-12.18,7.89,75.67,75.67,0,0,1-17.18,5.63,80.72,80.72,0,0,1-35.77-.06c-7.82-1.8-15.79-4.51-22.51-8.86-8.82-5.7-16.93-13.38-22.21-22.37-3.09-5.27-12.93-24.72-7.38-41.67,7.83-23.9,36.91-31,59.42-32.6a98,98,0,0,1,41.39,5.91,80.18,80.18,0,0,1,20,10.45c7.55,5.66,13.9,13.68,16.15,22.79C174.32,72.74,172.35,83.57,168.25,93.24Zm197.92,4.32c-5.28,9-13.39,16.67-22.21,22.37-6.73,4.35-14.69,7.06-22.51,8.86a80.72,80.72,0,0,1-35.77.06,75.67,75.67,0,0,1-17.18-5.63,64.47,64.47,0,0,1-12.18-7.89,55.41,55.41,0,0,1-16.2-22.09c-4.1-9.67-6.07-20.5-3.52-30.8,2.26-9.11,8.6-17.13,16.15-22.79a80.18,80.18,0,0,1,20-10.45,97.94,97.94,0,0,1,41.39-5.91c22.51,1.6,51.59,8.7,59.42,32.6C379.1,72.84,369.26,92.29,366.17,97.56Z"/></g></g></svg>