<svg xmlns="http://www.w3.org/2000/svg" viewBox="0 0 402.52 160.51"><defs><style>.cls-1{fill:none;stroke-width:8px;}.cls-1,.cls-2{stroke:#000;stroke-miterlimit:10;}.cls-2{stroke-width:4px;}</style></defs><title>Asset 9aviator</title><g id="Layer_2" data-name="Layer 2"><g id="Layer_1-2" data-name="Layer 1"><path d="M201.26,0C179.12,0,157,.4,128,1.2c-2.59.08-4.69,1.45-4.69,3V5.68c0,1.59,2.1,3,4.69,3,29,.8,51.13,1.2,73.27,1.2s44.28-.4,73.26-1.2c2.59-.08,4.69-1.45,4.69-3V4.24c0-1.59-2.1-3-4.69-3C245.54.4,223.4,0,201.26,0Z"/><path class="cls-1" d="M291.38,9.47l2.72,0c33.65.5,57,5.51,65.92,10.14,8.67,4.48,15.36,10,19.83,17.86,6.74,11.78,6.9,28,7,31.14.43,10.63-2.19,24.06-5.32,33-1.7,4.83-13.05,32.23-33.65,43.45a68.82,68.82,0,0,1-33.25,8.64,76.16,76.16,0,0,1-34.9-8.84c-16.57-8.61-26.64-19.86-35.07-32.33A144.29,144.29,0,0,1,231,87.59c-1.87-4.53-3.28-9.25-4.89-14.11-2.84-8.59-4.79-23.2-2.74-34.09,3.06-16.21,17.48-23,33.58-26.56a166,166,0,0,1,34.43-3.36m0-2.83a166.92,166.92,0,0,0-35.05,3.43c-13.59,3-32.07,9.32-35.75,28.79-2.12,11.28-.17,26.4,2.84,35.51.37,1.11.73,2.22,1.08,3.31,1.23,3.81,2.4,7.4,3.88,11a146.19,146.19,0,0,0,14,25.42c7.48,11.06,17.62,23.66,36.12,33.25a79,79,0,0,0,36.2,9.16,71.61,71.61,0,0,0,34.6-9c23.43-12.76,34.86-44.68,35-45,3.06-8.71,5.95-22.61,5.48-34l0-.65c-.45-13.32-2.93-24-7.38-31.77s-11.16-13.9-21-19c-8.68-4.49-31.49-9.93-67.18-10.45-.92,0-1.84,0-2.76,0Z"/><path class="cls-1" d="M111.16,9.47a165.84,165.84,0,0,1,34.41,3.36c16.1,3.6,30.52,10.35,33.58,26.55,2,10.9.1,25.51-2.75,34.1-1.61,4.86-3,9.58-4.88,14.11a144.29,144.29,0,0,1-13.69,24.92c-8.43,12.47-18.5,23.72-35.07,32.33a76.16,76.16,0,0,1-34.9,8.84A68.79,68.79,0,0,1,54.61,145C34,133.82,22.66,106.42,21,101.59c-3.13-8.9-5.75-22.33-5.32-33,.13-3.17.29-19.36,7-31.14,4.48-7.82,11.17-13.38,19.84-17.86C51.44,15,74.76,10,108.42,9.49l2.74,0m0-2.83c-.93,0-1.86,0-2.78,0-35.7.52-58.5,6-67.18,10.45-9.83,5.08-16.5,11.11-21,19s-6.93,18.47-7.37,31.78l0,.64c-.46,11.42,2.43,25.31,5.49,34,.11.32,11.53,32.23,35,45a71.65,71.65,0,0,0,34.61,9,79,79,0,0,0,36.2-9.16c18.5-9.6,28.64-22.19,36.12-33.25a146.11,146.11,0,0,0,14-25.47c1.46-3.55,2.62-7.14,3.85-10.94.36-1.1.72-2.21,1.09-3.32,3-9.1,5-24.22,2.83-35.51-3.67-19.46-22.15-25.75-35.74-28.79a166.79,166.79,0,0,0-35-3.43Z"/><path d="M389.94,58.86c-1.3,0-2.56,0-3.74.06,0,0,1.44,8,1.76,12.44,0,0,8.76-1.62,13.38-3.83,1.39-.67,1.17-1.33,1.16-2.27s-.15-3.51-.31-4.64-1.25-1.42-2.66-1.49c-3.19-.17-6.52-.27-9.59-.27Z"/><path d="M12.57,58.79c-3.06,0-6.39.1-9.58.27-1.41.07-2.48.27-2.66,1.5S0,64.24,0,65.19s-.23,1.6,1.16,2.27c4.62,2.21,13.38,3.83,13.38,3.83.32-4.44,1.76-12.44,1.76-12.44-1.18,0-2.44-.06-3.75-.06Z"/><path class="cls-2" d="M220,42.73c-3.57-5.37-10.63-9-18.77-9s-15.2,3.66-18.77,9a67.38,67.38,0,0,1,.32,8h0c0-7.82,8.27-14.18,18.43-14.18s18.42,6.36,18.42,14.18h0A65.32,65.32,0,0,1,220,42.73Z"/></g></g></svg>