<svg xmlns="http://www.w3.org/2000/svg" viewBox="0 0 368.73 144.39"><defs><style>.cls-1,.cls-2{stroke:#000;stroke-miterlimit:10;}.cls-1{stroke-width:4px;}.cls-2{fill:none;stroke-width:8px;}</style></defs><title>Asset 7round</title><g id="Layer_2" data-name="Layer 2"><g id="Layer_1-2" data-name="Layer 1"><path class="cls-1" d="M154.05,26.67h1.59a1.18,1.18,0,0,1,1.18,1.18V45a1.17,1.17,0,0,1-1.17,1.17h-1.59A1.17,1.17,0,0,1,152.88,45V27.85A1.17,1.17,0,0,1,154.05,26.67Z"/><path class="cls-1" d="M213.09,26.67h1.59a1.17,1.17,0,0,1,1.17,1.17V45a1.17,1.17,0,0,1-1.17,1.17h-1.59A1.17,1.17,0,0,1,211.91,45V27.85A1.18,1.18,0,0,1,213.09,26.67Z"/><path class="cls-1" d="M214.86,26.49h-2.1a3,3,0,0,0-.86.2,1.84,1.84,0,0,1-1.42-.2c-8.44-3.71-14.9-6.47-26-6.48h-.1c-11.12,0-17.67,2.77-26.11,6.48a1.86,1.86,0,0,1-1.43.2,2.9,2.9,0,0,0-.86-.2h-2.1c-1.1,0-1,1-1,1.58v2.57c0,1.61,2,1.35,2.66,1.29,1.63-.16,2.07,0,3.57-.11a8.81,8.81,0,0,0,2.56-.5c7.61-3.14,11.45-5,22.73-5.05s15,1.91,22.63,5.05a8.94,8.94,0,0,0,2.57.5c1.5.08,1.94-.05,3.57.11.63.06,2.66.32,2.66-1.29V28.07C215.85,27.5,216,26.49,214.86,26.49Z"/><path class="cls-2" d="M283.21,7.35c2.2,0,4.46.06,6.72.17,25.3,1.29,43.53,8.72,54.18,22.06,9.07,11.38,12.18,27,9,45.21-3.49,19.95-13,36.47-27.62,47.77-11.93,9.23-26.67,14.53-40.46,14.53-1.34,0-2.67-.05-3.95-.16-16.89-1.39-32.95-9.46-45.24-22.71a78.68,78.68,0,0,1-20.78-45.89c-1.32-16.35,3.12-30.57,12.84-41.11,12-13,31.13-19.87,55.32-19.87m.11-3.3c-47.25,0-74.67,26-71.56,64.55,3.25,35.25,31.48,68.52,69,71.62,1.37.11,2.78.17,4.22.17,26.23,0,63.27-18.92,71.34-65C363,37.18,343.73,7,290.1,4.22c-2.34-.11-4.54-.17-6.78-.17Z"/><path d="M352.18,42.73l15.13-.11c1.27,0,1.43-.16,1.42-1.56,0-.06-.08-7.21-.08-7.27,0-1.38-.14-1.51-1.44-1.5-2.5,0-3.24,0-18.77.16Z"/><path class="cls-2" d="M85.51,7.3c24.2,0,43.33,6.87,55.32,19.88,9.73,10.53,14.17,24.75,12.85,41.11a78.71,78.71,0,0,1-20.78,45.89c-12.29,13.24-28.36,21.31-45.24,22.71-1.28.1-2.61.16-4,.16-13.79,0-28.54-5.3-40.46-14.54C28.67,111.21,19.11,94.7,15.62,74.74c-3.19-18.2-.07-33.83,9-45.2C35.26,16.19,53.49,8.77,78.79,7.47c2.27-.11,4.53-.17,6.72-.17M85.41,4c-2.25,0-4.45.06-6.78.18C25,6.91,5.69,37.13,12.37,75.31c8.07,46.11,45.11,65,71.34,65,1.44,0,2.85-.05,4.22-.17,37.56-3.1,65.79-36.36,69-71.62C160.08,30,132.66,4,85.41,4Z"/><path d="M16.54,42.69,1.42,42.57C.15,42.56,0,42.41,0,41c0-.06.07-7.21.07-7.27,0-1.38.14-1.51,1.45-1.5,2.49,0,3.24,0,18.76.16Z"/></g></g></svg>