<svg xmlns="http://www.w3.org/2000/svg" viewBox="0 0 372.83 122.52"><defs><style>.cls-1,.cls-2{stroke:#000;stroke-miterlimit:10;}.cls-1{stroke-width:4px;}.cls-2{fill:none;stroke-width:8px;}.cls-3{fill-rule:evenodd;}</style></defs><title>Asset 12wire_active</title><g id="Layer_2" data-name="Layer 2"><g id="Layer_1-2" data-name="Layer 1"><path class="cls-1" d="M159.22,33.49h1.59A1.17,1.17,0,0,1,162,34.67V51.86A1.17,1.17,0,0,1,160.8,53h-1.59A1.17,1.17,0,0,1,158,51.86V34.67A1.18,1.18,0,0,1,159.22,33.49Z"/><path class="cls-1" d="M212,33.49h1.59a1.17,1.17,0,0,1,1.17,1.17V51.86A1.17,1.17,0,0,1,213.56,53H212a1.17,1.17,0,0,1-1.17-1.17V34.67A1.18,1.18,0,0,1,212,33.49Z"/><path class="cls-1" d="M213.84,33.31H212a2.46,2.46,0,0,0-.78.2,1.48,1.48,0,0,1-1.28-.2c-7.6-3.71-13.41-6.47-23.43-6.48h-.08c-10,0-15.91,2.77-23.51,6.48a1.5,1.5,0,0,1-1.29.2,2.37,2.37,0,0,0-.77-.2h-1.89c-1,0-.89,1-.88,1.58v2.57c0,1.61,1.83,1.35,2.39,1.29,1.47-.16,1.87,0,3.22-.11a7.35,7.35,0,0,0,2.31-.5c6.84-3.14,10.3-5,20.46-5s13.53,1.9,20.38,5a7.23,7.23,0,0,0,2.3.5c1.36.08,1.75,0,3.22.11.56.06,2.39.32,2.39-1.29V34.89C214.74,34.32,214.84,33.31,213.84,33.31Z"/><path class="cls-2" d="M88,7.4a104.24,104.24,0,0,1,12,.68C123.3,10.64,152.1,19.6,157.3,45.23c3.82,18.17-8.1,37.4-11.78,42.49-6.25,8.74-15.18,15.78-24.5,20.63-7.1,3.7-15.22,5.52-23.08,6.36a73.66,73.66,0,0,1-7.69.41c-2.15,0-4.29-.1-6.43-.28-42.63-2.67-60.51-33.5-64.44-44.44-11.1-31,9.44-50.06,37.18-58.34A110.55,110.55,0,0,1,87.74,7.4H88M88,4h-.24A113.65,113.65,0,0,0,55.59,8.8C31.72,15.92,21.44,27.83,17,36.57c-5.2,10.27-5.48,22-.84,35,2.49,7,8.69,17.61,18.61,26.68,13.19,12.06,29.6,18.79,48.77,20,2.23.19,4.48.29,6.69.29a74.58,74.58,0,0,0,8-.43c9.63-1,17.58-3.22,24.29-6.72,7.41-3.86,17.88-10.75,25.7-21.67,1.72-2.39,16.78-24,12.34-45.17C158.08,32,150.14,22,137,15c-12.21-6.53-26.71-9.21-36.73-10.3A107.65,107.65,0,0,0,88,4Z"/><path class="cls-2" d="M284.8,7.4H285a110.55,110.55,0,0,1,31.18,4.66C344,20.34,364.5,39.41,353.39,70.4c-3.92,10.94-21.8,41.77-64.43,44.44-2.14.18-4.28.28-6.43.28a73.51,73.51,0,0,1-7.69-.41c-7.87-.84-16-2.66-23.09-6.36-9.31-4.85-18.25-11.89-24.5-20.63-3.67-5.09-15.59-24.32-11.78-42.49,5.21-25.63,34-34.59,57.37-37.15a104.11,104.11,0,0,1,12-.68m0-3.4a107.7,107.7,0,0,0-12.34.7C252.52,6.88,218.15,15,212.14,44.55c-4.44,21.13,10.63,42.76,12.36,45.16,7.8,10.91,18.27,17.8,25.68,21.66,6.71,3.5,14.66,5.69,24.3,6.72a74.58,74.58,0,0,0,8,.43c2.21,0,4.46-.1,6.68-.29,19.17-1.21,35.58-7.94,48.77-20,9.92-9.07,16.12-19.73,18.61-26.68,4.64-12.95,4.36-24.71-.83-35-4.42-8.74-14.7-20.65-38.58-27.77A113.59,113.59,0,0,0,285,4Z"/><path d="M16.13,57.76a8.31,8.31,0,0,0,0-3.26l.06-1.8a5.62,5.62,0,0,0,0-2.08s.1-2.81-.37-3.16c-.47-.66-9.82-1.15-11.22-.63a4.07,4.07,0,0,0-2.95,2.41,1.58,1.58,0,0,0,0,1.26,2.3,2.3,0,0,0-1.2.75,2.3,2.3,0,0,0-.23,2.09,1.7,1.7,0,0,0,0,1.81,2.31,2.31,0,0,0,1.49,1,1.48,1.48,0,0,0,.12,1.5,5.38,5.38,0,0,0,3.84,2.15C8.77,60.19,16.13,58,16.13,57.76Z"/><path d="M16.23,50.62S6.36,51,1.67,50.5"/><path d="M16.21,53.21a86.14,86.14,0,0,1-16,.13"/><path d="M1.78,56.11s5.26,1,14.5-.74"/><path d="M367.1,59.76a5.33,5.33,0,0,0,3.83-2.15,1.45,1.45,0,0,0,.12-1.5,2.31,2.31,0,0,0,1.49-1,1.68,1.68,0,0,0,0-1.81,2,2,0,0,0-1.43-2.84,1.58,1.58,0,0,0,0-1.26,4.05,4.05,0,0,0-2.95-2.41c-1.4-.52-10.74,0-11.22.63-.47.35-.37,3.16-.37,3.16a5.89,5.89,0,0,0,0,2.08l.07,1.8a8.23,8.23,0,0,0,0,3.26C356.7,58,364.06,60.19,367.1,59.76Z"/><path d="M356.6,50.62s9.87.42,14.56-.12"/><path d="M356.62,53.21a86.19,86.19,0,0,0,16,.13"/><path d="M371.05,56.11s-5.26,1-14.5-.74"/><path class="cls-3" d="M111.27,45.39c0-7.44-3.5-13.47-7.82-13.47s-7.82,6-7.82,13.47,3.5,13.47,7.82,13.47S111.27,52.83,111.27,45.39Z"/><path class="cls-3" d="M86.52,91.92c-1.62-.15-3.24-.22-4.85-.45C71.74,90,63,86,56.34,78.36c-2.23-2.55-3.63-5.83-5.39-8.77-.28-.46-.51-1-.88-1.63-.48.58-.88,1-1.21,1.5a1.25,1.25,0,0,1-1.58.61c-.75-.27-.62-.95-.47-1.48a5.42,5.42,0,0,1,.83-1.77,8.91,8.91,0,0,1,7.26-3.93c.68,0,1.37,0,1.48.94a1.4,1.4,0,0,1-1.27,1.62l-2.5.64c.39.79.69,1.4,1,2a47.39,47.39,0,0,0,6.5,9.31,27.62,27.62,0,0,0,7.54,5.74,40.45,40.45,0,0,0,23,5.23c10-.74,18.62-4.44,25.44-11.9a27.3,27.3,0,0,0,5.84-10.17c-.68-.2-1.32-.41-2-.58-1-.24-1.52-.91-1.37-1.69.2-1,1-.88,1.67-.84,3,.22,5.16,1.89,6.87,4.24a10,10,0,0,1,.85,1.39.94.94,0,0,1-.33,1.4,1.54,1.54,0,0,1-1.33-.28,26.37,26.37,0,0,1-2-2.26c-.23.5-.39.79-.51,1.1-3.7,10-10.92,16.37-20.67,20.16a40.83,40.83,0,0,1-12.75,2.85,2.83,2.83,0,0,0-.56.13Z"/><path class="cls-3" d="M79.61,45.39c0-7.44-3.5-13.47-7.81-13.47S64,38,64,45.39s3.5,13.47,7.82,13.47S79.61,52.83,79.61,45.39Z"/><path class="cls-3" d="M309.27,45.39c0-7.44-3.5-13.47-7.82-13.47s-7.82,6-7.82,13.47,3.5,13.47,7.82,13.47S309.27,52.83,309.27,45.39Z"/><path class="cls-3" d="M284.52,91.92c-1.62-.15-3.24-.22-4.85-.45C269.74,90,261,86,254.34,78.36c-2.23-2.55-3.63-5.83-5.39-8.77-.28-.46-.51-1-.88-1.63-.48.58-.88,1-1.21,1.5a1.25,1.25,0,0,1-1.58.61c-.75-.27-.62-.95-.47-1.48a5.42,5.42,0,0,1,.83-1.77,8.91,8.91,0,0,1,7.26-3.93c.68,0,1.37,0,1.48.94a1.4,1.4,0,0,1-1.27,1.62l-2.5.64c.39.79.69,1.4,1,2a47.39,47.39,0,0,0,6.5,9.31,27.62,27.62,0,0,0,7.54,5.74,40.45,40.45,0,0,0,23,5.23c10-.74,18.62-4.44,25.44-11.9a27.3,27.3,0,0,0,5.84-10.17c-.68-.2-1.32-.41-2-.58-.95-.24-1.52-.91-1.37-1.69.2-1,1-.88,1.67-.84,3,.22,5.16,1.89,6.87,4.24a10,10,0,0,1,.85,1.39.94.94,0,0,1-.33,1.4,1.54,1.54,0,0,1-1.33-.28,26.37,26.37,0,0,1-2.05-2.26c-.23.5-.39.79-.51,1.1-3.7,10-10.92,16.37-20.67,20.16a40.83,40.83,0,0,1-12.75,2.85,2.83,2.83,0,0,0-.56.13Z"/><path class="cls-3" d="M277.61,45.39c0-7.44-3.5-13.47-7.81-13.47S262,38,262,45.39s3.5,13.47,7.82,13.47S277.61,52.83,277.61,45.39Z"/></g></g></svg>